<svg xmlns="http://www.w3.org/2000/svg" width="97" height="84.848" viewBox="0 0 97 84.848">
  <g id="award" transform="translate(-1010.5 -2545)">
    <g id="Group_514" data-name="Group 514" transform="translate(1010.5 2545)">
      <g id="Group_513" data-name="Group 513" transform="translate(0 0)">
        <g id="Group_497" data-name="Group 497" transform="translate(47.679)">
          <path id="Path_144" data-name="Path 144" d="M439.121,168.908a9.215,9.215,0,0,1,2.561,5.086,7.978,7.978,0,0,1-7.86-7.169A9.215,9.215,0,0,1,439.121,168.908Z" transform="translate(-410.851 -166.78)" fill="#fc0"/>
          <g id="Group_495" data-name="Group 495" transform="translate(11.025)">
            <g id="Group_483" data-name="Group 483" transform="translate(0 71.298)">
              <path id="Path_145" data-name="Path 145" d="M374.767,535.241a9.655,9.655,0,0,0-1.956,5.237c-.007.036,3.921-1.062,5.684-3.706a6.775,6.775,0,0,0,.93-5.309A16.007,16.007,0,0,0,374.767,535.241Z" transform="translate(-372.785 -531.463)" fill="#fc0"/>
              <path id="Path_146" data-name="Path 146" d="M377.423,577.108a6.667,6.667,0,0,1-4.733-3.169,21.609,21.609,0,0,1,6.918-.679,8.8,8.8,0,0,1,5.1,2.409C384.758,575.679,380.909,577.707,377.423,577.108Z" transform="translate(-372.69 -565.028)" fill="#fc0"/>
            </g>
            <g id="Group_484" data-name="Group 484" transform="translate(7.899 67.641)">
              <path id="Path_147" data-name="Path 147" d="M414.01,517.189a9.488,9.488,0,0,0-.8,5.383c0,.036,3.45-1.678,4.612-4.532a6.791,6.791,0,0,0-.137-5.291A14.707,14.707,0,0,0,414.01,517.189Z" transform="translate(-413.111 -512.749)" fill="#fc0"/>
              <path id="Path_148" data-name="Path 148" d="M418.447,557.273a6.573,6.573,0,0,1-5.054-2.27,19.7,19.7,0,0,1,6.366-1.814,8.665,8.665,0,0,1,5.309,1.467C425.112,554.659,421.835,557.271,418.447,557.273Z" transform="translate(-413.338 -545.278)" fill="#fc0"/>
            </g>
            <g id="Group_485" data-name="Group 485" transform="translate(14.411 63.096)">
              <path id="Path_149" data-name="Path 149" d="M446.71,494.425a9.419,9.419,0,0,0,.264,5.343,9.887,9.887,0,0,0,3.55-5.172,6.79,6.79,0,0,0-1.107-5.106A13.942,13.942,0,0,0,446.71,494.425Z" transform="translate(-446.44 -489.49)" fill="#fc0"/>
              <path id="Path_150" data-name="Path 150" d="M454.112,530.394a6.45,6.45,0,0,1-5.249-1.338,18.434,18.434,0,0,1,5.74-2.84,8.526,8.526,0,0,1,5.385.51C460.028,526.722,457.345,529.817,454.112,530.394Z" transform="translate(-448.389 -518.864)" fill="#fc0"/>
            </g>
            <g id="Group_486" data-name="Group 486" transform="translate(19.573 57.823)">
              <path id="Path_151" data-name="Path 151" d="M472.877,467.772a9.326,9.326,0,0,0,1.23,5.137,9.749,9.749,0,0,0,2.5-5.634,6.74,6.74,0,0,0-1.978-4.773A13.521,13.521,0,0,0,472.877,467.772Z" transform="translate(-472.857 -462.503)" fill="#fc0"/>
              <path id="Path_152" data-name="Path 152" d="M484.187,497.534a6.343,6.343,0,0,1-5.312-.392,17.72,17.72,0,0,1,5.039-3.749,8.437,8.437,0,0,1,5.326-.444C489.277,492.939,487.208,496.416,484.187,497.534Z" transform="translate(-477.699 -486.808)" fill="#fc0"/>
            </g>
            <g id="Group_487" data-name="Group 487" transform="translate(23.445 51.982)">
              <path id="Path_153" data-name="Path 153" d="M492.717,438.061a9.187,9.187,0,0,0,2.1,4.784,9.727,9.727,0,0,0,1.456-5.924,6.641,6.641,0,0,0-2.746-4.31A13.3,13.3,0,0,0,492.717,438.061Z" transform="translate(-492.671 -432.611)" fill="#fc0"/>
              <path id="Path_154" data-name="Path 154" d="M508.444,459.71a6.278,6.278,0,0,1-5.242.548,17.429,17.429,0,0,1,4.262-4.535,8.415,8.415,0,0,1,5.132-1.374C512.629,454.334,511.194,458.093,508.444,459.71Z" transform="translate(-501.144 -450.081)" fill="#fc0"/>
            </g>
            <g id="Group_488" data-name="Group 488" transform="translate(25.974 45.734)">
              <path id="Path_155" data-name="Path 155" d="M505.971,406.122a8.994,8.994,0,0,0,2.862,4.3,9.733,9.733,0,0,0,.426-6.051,6.508,6.508,0,0,0-3.409-3.735A13.228,13.228,0,0,0,505.971,406.122Z" transform="translate(-505.612 -400.638)" fill="#fc0"/>
              <path id="Path_156" data-name="Path 156" d="M526.653,418.358a6.261,6.261,0,0,1-5.036,1.464,17.471,17.471,0,0,1,3.406-5.19,8.455,8.455,0,0,1,4.8-2.262C529.852,412.35,529.072,416.292,526.653,418.358Z" transform="translate(-518.49 -410.077)" fill="#fc0"/>
            </g>
            <g id="Group_489" data-name="Group 489" transform="translate(27.046 39.241)">
              <path id="Path_157" data-name="Path 157" d="M512.131,372.79a8.782,8.782,0,0,0,3.519,3.711,9.742,9.742,0,0,0-.59-6.02,6.377,6.377,0,0,0-3.963-3.069A13.266,13.266,0,0,0,512.131,372.79Z" transform="translate(-511.098 -367.412)" fill="#fc0"/>
              <path id="Path_158" data-name="Path 158" d="M538.584,375.246a6.281,6.281,0,0,1-4.689,2.336,17.762,17.762,0,0,1,2.472-5.708,8.535,8.535,0,0,1,4.32-3.089C540.714,368.761,540.61,372.785,538.584,375.246Z" transform="translate(-529.44 -368.517)" fill="#fc0"/>
            </g>
            <g id="Group_490" data-name="Group 490" transform="translate(26.759 30.912)">
              <path id="Path_159" data-name="Path 159" d="M511.559,338.9a8.588,8.588,0,0,0,4.069,3.028,9.762,9.762,0,0,0-1.592-5.838,6.267,6.267,0,0,0-4.4-2.329A13.472,13.472,0,0,0,511.559,338.9Z" transform="translate(-509.632 -332.009)" fill="#fc0"/>
              <path id="Path_160" data-name="Path 160" d="M544,331.553a6.316,6.316,0,0,1-4.2,3.146,18.288,18.288,0,0,1,1.458-6.08,8.615,8.615,0,0,1,3.7-3.836C544.984,324.755,545.575,328.761,544,331.553Z" transform="translate(-533.909 -324.783)" fill="#fc0"/>
            </g>
            <g id="Group_491" data-name="Group 491" transform="translate(25.312 22.446)">
              <path id="Path_161" data-name="Path 161" d="M505.027,305.177a8.426,8.426,0,0,0,4.505,2.273,9.844,9.844,0,0,0-2.579-5.512,6.187,6.187,0,0,0-4.73-1.534A13.9,13.9,0,0,0,505.027,305.177Z" transform="translate(-502.223 -296.678)" fill="#fc0"/>
              <path id="Path_162" data-name="Path 162" d="M542.218,288.369a6.339,6.339,0,0,1-3.563,3.876,19.092,19.092,0,0,1,.363-6.3,8.693,8.693,0,0,1,2.924-4.485C541.962,281.429,543.27,285.318,542.218,288.369Z" transform="translate(-531.445 -281.46)" fill="#fc0"/>
            </g>
            <g id="Group_492" data-name="Group 492" transform="translate(22.662 14.328)">
              <path id="Path_163" data-name="Path 163" d="M492.325,271.865a8.3,8.3,0,0,0,4.827,1.465,10.064,10.064,0,0,0-3.548-5.049,6.123,6.123,0,0,0-4.938-.7A14.646,14.646,0,0,0,492.325,271.865Z" transform="translate(-488.665 -261.982)" fill="#fc0"/>
              <path id="Path_164" data-name="Path 164" d="M530.909,246.791a6.341,6.341,0,0,1-2.778,4.5,20.334,20.334,0,0,1-.814-6.361,8.775,8.775,0,0,1,2-5.016C529.333,239.885,531.378,243.556,530.909,246.791Z" transform="translate(-519.739 -239.919)" fill="#fc0"/>
            </g>
            <g id="Group_493" data-name="Group 493" transform="translate(18.771 6.774)">
              <path id="Path_165" data-name="Path 165" d="M473.245,239.781a8.2,8.2,0,0,0,5.029.621,10.517,10.517,0,0,0-4.5-4.456,6.055,6.055,0,0,0-5.025.145A15.819,15.819,0,0,0,473.245,239.781Z" transform="translate(-468.75 -228.784)" fill="#fc0"/>
              <path id="Path_166" data-name="Path 166" d="M510.017,207.911a6.329,6.329,0,0,1-1.84,5.015,22.272,22.272,0,0,1-2.075-6.255,8.929,8.929,0,0,1,.919-5.41C507.034,201.225,509.835,204.578,510.017,207.911Z" transform="translate(-498.739 -201.261)" fill="#fc0"/>
            </g>
            <g id="Group_494" data-name="Group 494" transform="translate(13.596)">
              <path id="Path_167" data-name="Path 167" d="M447.578,209.893a8.065,8.065,0,0,0,5.11-.238,11.323,11.323,0,0,0-5.433-3.74,5.937,5.937,0,0,0-4.987.992A17.508,17.508,0,0,0,447.578,209.893Z" transform="translate(-442.269 -198.092)" fill="#fc0"/>
              <path id="Path_168" data-name="Path 168" d="M479.368,172.831a6.358,6.358,0,0,1-.746,5.387,25.29,25.29,0,0,1-3.421-5.976,9.3,9.3,0,0,1-.32-5.649C474.889,166.557,478.468,169.492,479.368,172.831Z" transform="translate(-468.278 -166.593)" fill="#fc0"/>
            </g>
          </g>
          <g id="Group_496" data-name="Group 496" transform="translate(0 5.104)">
            <path id="Path_169" data-name="Path 169" d="M316.27,268.791l.055-.606a37.4,37.4,0,0,0,14.885-1.663,39.409,39.409,0,0,0,13.013-7.125,41.4,41.4,0,0,0,14.719-26.763c1.135-8.678.553-16.412-1.731-22.986a30.662,30.662,0,0,0-12.978-16.418l.322-.517a31.259,31.259,0,0,1,13.231,16.735c2.315,6.664,2.907,14.491,1.759,23.264a42.009,42.009,0,0,1-14.936,27.154A40.01,40.01,0,0,1,331.4,267.1,38,38,0,0,1,316.27,268.791Z" transform="translate(-316.27 -192.713)" fill="#fc0"/>
          </g>
        </g>
        <g id="Group_512" data-name="Group 512">
          <path id="Path_170" data-name="Path 170" d="M169.458,168.908a9.216,9.216,0,0,0-2.561,5.086,7.978,7.978,0,0,0,7.86-7.169A9.215,9.215,0,0,0,169.458,168.908Z" transform="translate(-148.407 -166.78)" fill="#fc0"/>
          <g id="Group_510" data-name="Group 510">
            <g id="Group_498" data-name="Group 498" transform="translate(26.273 71.298)">
              <path id="Path_171" data-name="Path 171" d="M238.164,535.241a9.658,9.658,0,0,1,1.956,5.237c.007.036-3.921-1.062-5.684-3.706a6.775,6.775,0,0,1-.93-5.309A16.01,16.01,0,0,1,238.164,535.241Z" transform="translate(-228.123 -531.463)" fill="#fc0"/>
              <path id="Path_172" data-name="Path 172" d="M214.016,577.108a6.667,6.667,0,0,0,4.733-3.169,21.611,21.611,0,0,0-6.918-.679,8.8,8.8,0,0,0-5.1,2.409C206.681,575.679,210.53,577.707,214.016,577.108Z" transform="translate(-206.726 -565.028)" fill="#fc0"/>
            </g>
            <g id="Group_499" data-name="Group 499" transform="translate(18.666 67.641)">
              <path id="Path_173" data-name="Path 173" d="M205.553,517.189a9.49,9.49,0,0,1,.8,5.383c0,.036-3.45-1.678-4.612-4.532a6.792,6.792,0,0,1,.137-5.291A14.71,14.71,0,0,1,205.553,517.189Z" transform="translate(-194.721 -512.749)" fill="#fc0"/>
              <path id="Path_174" data-name="Path 174" d="M174.419,557.273a6.573,6.573,0,0,0,5.055-2.27,19.7,19.7,0,0,0-6.366-1.814,8.665,8.665,0,0,0-5.309,1.467C167.755,554.659,171.032,557.271,174.419,557.273Z" transform="translate(-167.798 -545.278)" fill="#fc0"/>
            </g>
            <g id="Group_500" data-name="Group 500" transform="translate(12.286 63.096)">
              <path id="Path_175" data-name="Path 175" d="M176.9,494.425a9.42,9.42,0,0,1-.264,5.343,9.886,9.886,0,0,1-3.55-5.172,6.791,6.791,0,0,1,1.107-5.106A13.934,13.934,0,0,1,176.9,494.425Z" transform="translate(-165.569 -489.49)" fill="#fc0"/>
              <path id="Path_176" data-name="Path 176" d="M141.023,530.394a6.451,6.451,0,0,0,5.249-1.338,18.436,18.436,0,0,0-5.74-2.84,8.526,8.526,0,0,0-5.384.51C135.107,526.722,137.79,529.817,141.023,530.394Z" transform="translate(-135.147 -518.864)" fill="#fc0"/>
            </g>
            <g id="Group_501" data-name="Group 501" transform="translate(7.181 57.823)">
              <path id="Path_177" data-name="Path 177" d="M152.629,467.772a9.327,9.327,0,0,1-1.23,5.137,9.747,9.747,0,0,1-2.5-5.634,6.742,6.742,0,0,1,1.978-4.773A13.517,13.517,0,0,1,152.629,467.772Z" transform="translate(-141.108 -462.503)" fill="#fc0"/>
              <path id="Path_178" data-name="Path 178" d="M114.074,497.534a6.343,6.343,0,0,0,5.312-.392,17.723,17.723,0,0,0-5.039-3.749,8.438,8.438,0,0,0-5.326-.444C108.984,492.939,111.053,496.416,114.074,497.534Z" transform="translate(-109.021 -486.808)" fill="#fc0"/>
            </g>
            <g id="Group_502" data-name="Group 502" transform="translate(3.399 51.982)">
              <path id="Path_179" data-name="Path 179" d="M133.114,438.061a9.187,9.187,0,0,1-2.1,4.784,9.727,9.727,0,0,1-1.455-5.924,6.64,6.64,0,0,1,2.746-4.31A13.3,13.3,0,0,1,133.114,438.061Z" transform="translate(-121.708 -432.611)" fill="#fc0"/>
              <path id="Path_180" data-name="Path 180" d="M93.82,459.71a6.278,6.278,0,0,0,5.242.548,17.428,17.428,0,0,0-4.261-4.535,8.416,8.416,0,0,0-5.132-1.374C89.636,454.334,91.07,458.093,93.82,459.71Z" transform="translate(-89.669 -450.081)" fill="#fc0"/>
            </g>
            <g id="Group_503" data-name="Group 503" transform="translate(0.99 45.734)">
              <path id="Path_181" data-name="Path 181" d="M118.592,406.122a9,9,0,0,1-2.862,4.3,9.734,9.734,0,0,1-.426-6.051,6.508,6.508,0,0,1,3.409-3.735A13.231,13.231,0,0,1,118.592,406.122Z" transform="translate(-107.619 -400.638)" fill="#fc0"/>
              <path id="Path_182" data-name="Path 182" d="M80.508,418.358a6.261,6.261,0,0,0,5.036,1.464,17.482,17.482,0,0,0-3.406-5.19,8.456,8.456,0,0,0-4.8-2.262C77.31,412.35,78.089,416.292,80.508,418.358Z" transform="translate(-77.34 -410.077)" fill="#fc0"/>
            </g>
            <g id="Group_504" data-name="Group 504" transform="translate(0 39.241)">
              <path id="Path_183" data-name="Path 183" d="M109.109,372.79a8.784,8.784,0,0,1-3.52,3.711,9.745,9.745,0,0,1,.591-6.02,6.377,6.377,0,0,1,3.962-3.069A13.264,13.264,0,0,1,109.109,372.79Z" transform="translate(-98.892 -367.412)" fill="#fc0"/>
              <path id="Path_184" data-name="Path 184" d="M74.379,375.246a6.281,6.281,0,0,0,4.689,2.336,17.769,17.769,0,0,0-2.472-5.708,8.533,8.533,0,0,0-4.32-3.089C72.248,368.761,72.353,372.785,74.379,375.246Z" transform="translate(-72.273 -368.517)" fill="#fc0"/>
            </g>
            <g id="Group_505" data-name="Group 505" transform="translate(0.357 30.912)">
              <path id="Path_185" data-name="Path 185" d="M104.63,338.9a8.587,8.587,0,0,1-4.069,3.028,9.765,9.765,0,0,1,1.592-5.838,6.266,6.266,0,0,1,4.4-2.329A13.475,13.475,0,0,1,104.63,338.9Z" transform="translate(-95.378 -332.009)" fill="#fc0"/>
              <path id="Path_186" data-name="Path 186" d="M75.183,331.553a6.316,6.316,0,0,0,4.2,3.146,18.287,18.287,0,0,0-1.459-6.08,8.615,8.615,0,0,0-3.7-3.836C74.2,324.755,73.612,328.761,75.183,331.553Z" transform="translate(-74.099 -324.783)" fill="#fc0"/>
            </g>
            <g id="Group_506" data-name="Group 506" transform="translate(1.802 22.446)">
              <path id="Path_187" data-name="Path 187" d="M105.816,305.177a8.426,8.426,0,0,1-4.505,2.273,9.845,9.845,0,0,1,2.579-5.512,6.187,6.187,0,0,1,4.73-1.534A13.894,13.894,0,0,1,105.816,305.177Z" transform="translate(-97.438 -296.678)" fill="#fc0"/>
              <path id="Path_188" data-name="Path 188" d="M81.9,288.369a6.339,6.339,0,0,0,3.563,3.876,19.093,19.093,0,0,0-.363-6.3,8.694,8.694,0,0,0-2.924-4.485C82.159,281.429,80.852,285.318,81.9,288.369Z" transform="translate(-81.495 -281.46)" fill="#fc0"/>
            </g>
            <g id="Group_507" data-name="Group 507" transform="translate(4.394 14.328)">
              <path id="Path_189" data-name="Path 189" d="M113.671,271.865a8.3,8.3,0,0,1-4.827,1.465,10.065,10.065,0,0,1,3.548-5.049,6.122,6.122,0,0,1,4.938-.7A14.645,14.645,0,0,1,113.671,271.865Z" transform="translate(-106.091 -261.982)" fill="#fc0"/>
              <path id="Path_190" data-name="Path 190" d="M94.829,246.791a6.34,6.34,0,0,0,2.778,4.5,20.329,20.329,0,0,0,.814-6.361,8.775,8.775,0,0,0-2-5.016C96.405,239.885,94.361,243.556,94.829,246.791Z" transform="translate(-94.759 -239.919)" fill="#fc0"/>
            </g>
            <g id="Group_508" data-name="Group 508" transform="translate(8.234 6.774)">
              <path id="Path_191" data-name="Path 191" d="M128.476,239.781a8.2,8.2,0,0,1-5.03.621,10.52,10.52,0,0,1,4.5-4.456,6.056,6.056,0,0,1,5.025.145A15.821,15.821,0,0,1,128.476,239.781Z" transform="translate(-121.68 -228.784)" fill="#fc0"/>
              <path id="Path_192" data-name="Path 192" d="M114.422,207.911a6.329,6.329,0,0,0,1.84,5.015,22.277,22.277,0,0,0,2.075-6.255,8.928,8.928,0,0,0-.919-5.41C117.406,201.225,114.6,204.578,114.422,207.911Z" transform="translate(-114.409 -201.261)" fill="#fc0"/>
            </g>
            <g id="Group_509" data-name="Group 509" transform="translate(13.338)">
              <path id="Path_193" data-name="Path 193" d="M150.46,209.893a8.065,8.065,0,0,1-5.11-.238,11.321,11.321,0,0,1,5.433-3.74,5.936,5.936,0,0,1,4.987.992A17.5,17.5,0,0,1,150.46,209.893Z" transform="translate(-144.407 -198.092)" fill="#fc0"/>
              <path id="Path_194" data-name="Path 194" d="M140.8,172.831a6.358,6.358,0,0,0,.746,5.387,25.3,25.3,0,0,0,3.421-5.976,9.3,9.3,0,0,0,.32-5.649C145.28,166.557,141.7,169.492,140.8,172.831Z" transform="translate(-140.53 -166.593)" fill="#fc0"/>
            </g>
          </g>
          <g id="Group_511" data-name="Group 511" transform="translate(5.478 5.104)">
            <path id="Path_195" data-name="Path 195" d="M144.148,268.791l-.055-.606a37.4,37.4,0,0,1-14.885-1.663A39.408,39.408,0,0,1,116.2,259.4a41.4,41.4,0,0,1-14.719-26.763c-1.135-8.678-.553-16.412,1.731-22.986a30.662,30.662,0,0,1,12.978-16.418l-.322-.517a31.257,31.257,0,0,0-13.231,16.735c-2.315,6.664-2.906,14.491-1.759,23.264a42.01,42.01,0,0,0,14.936,27.154,40.013,40.013,0,0,0,13.213,7.235A38,38,0,0,0,144.148,268.791Z" transform="translate(-100.304 -192.713)" fill="#fc0"/>
          </g>
        </g>
      </g>
      <path id="Path_196" data-name="Path 196" d="M300.6,566.174l-4.6,3.383,4.6,3.383,4.6-3.383Z" transform="translate(-252.284 -488.093)" fill="#fc0"/>
    </g>
    <g id="Group_470" data-name="Group 470" transform="translate(-50.015 42.504)">
      <g id="Group_469" data-name="Group 469" transform="translate(1089.502 2520.278)">
        <g id="d7decc42be3412632f3e92b3f5194db6" transform="translate(14.192 0)">
          <g id="Group_468" data-name="Group 468" transform="translate(0 0)">
            <path id="Path_143" data-name="Path 143" d="M15.524-478a.407.407,0,0,0-.178.181c-.012.035-.28.847-.592,1.806s-.58,1.759-.6,1.779c-.089.107-.069.107-2.051.107-2.056,0-2.014,0-2.079.139-.055.121-.035.2.079.32.057.057.738.565,1.516,1.127s1.442,1.05,1.479,1.085c.134.124.146.079-.488,2.026s-.622,1.905-.5,2.031a.3.3,0,0,0,.317.03c.03-.015.721-.51,1.533-1.1s1.506-1.088,1.541-1.1a.2.2,0,0,1,.149,0c.045.015.751.51,1.566,1.1s1.511,1.093,1.543,1.11a.343.343,0,0,0,.275,0,.3.3,0,0,0,.111-.282c-.01-.042-.272-.862-.585-1.823S18-471.248,18-471.282a.246.246,0,0,1,.049-.126c.027-.035.713-.545,1.524-1.135s1.506-1.107,1.548-1.154a.227.227,0,0,0,0-.334l-.072-.082-1.942-.012c-1.987-.012-1.994-.012-2.074-.107-.015-.02-.285-.823-.595-1.779s-.58-1.771-.592-1.806A.3.3,0,0,0,15.524-478Z" transform="translate(-9.998 478.009)" fill="#f68121"/>
          </g>
        </g>
        <g id="d7decc42be3412632f3e92b3f5194db6-2" data-name="d7decc42be3412632f3e92b3f5194db6" transform="translate(0 3.988)">
          <g id="Group_468-2" data-name="Group 468" transform="translate(0 0)">
            <path id="Path_143-2" data-name="Path 143" d="M14.288-478a.316.316,0,0,0-.139.14c-.01.027-.217.658-.46,1.4s-.45,1.366-.464,1.381c-.069.083-.054.083-1.593.083-1.6,0-1.564,0-1.614.108-.042.094-.027.158.062.248.044.044.573.439,1.177.875s1.119.816,1.148.843c.1.1.113.062-.379,1.573s-.483,1.479-.385,1.577a.234.234,0,0,0,.246.023c.023-.012.56-.4,1.191-.854s1.169-.844,1.2-.858a.158.158,0,0,1,.115,0c.035.012.583.4,1.216.856s1.173.848,1.2.862a.266.266,0,0,0,.213,0,.233.233,0,0,0,.087-.219c-.008-.033-.212-.669-.454-1.416s-.44-1.381-.44-1.408a.191.191,0,0,1,.038-.1c.021-.027.554-.423,1.183-.881s1.169-.86,1.2-.9a.176.176,0,0,0,0-.26l-.056-.063-1.508-.009c-1.543-.01-1.548-.01-1.61-.083-.012-.015-.221-.639-.462-1.381s-.45-1.375-.46-1.4A.23.23,0,0,0,14.288-478Z" transform="translate(-9.998 478.009)" fill="#f68121"/>
          </g>
        </g>
        <g id="d7decc42be3412632f3e92b3f5194db6-3" data-name="d7decc42be3412632f3e92b3f5194db6" transform="translate(30.331 3.988)">
          <g id="Group_468-3" data-name="Group 468" transform="translate(0 0)">
            <path id="Path_143-3" data-name="Path 143" d="M14.288-478a.316.316,0,0,0-.139.14c-.01.027-.217.658-.46,1.4s-.45,1.366-.464,1.381c-.069.083-.054.083-1.593.083-1.6,0-1.564,0-1.614.108-.042.094-.027.158.062.248.044.044.573.439,1.177.875s1.119.816,1.148.843c.1.1.113.062-.379,1.573s-.483,1.479-.385,1.577a.234.234,0,0,0,.246.023c.023-.012.56-.4,1.191-.854s1.169-.844,1.2-.858a.158.158,0,0,1,.115,0c.035.012.583.4,1.216.856s1.173.848,1.2.862a.266.266,0,0,0,.213,0,.233.233,0,0,0,.087-.219c-.008-.033-.212-.669-.454-1.416s-.44-1.381-.44-1.408a.191.191,0,0,1,.038-.1c.021-.027.554-.423,1.183-.881s1.169-.86,1.2-.9a.176.176,0,0,0,0-.26l-.056-.063-1.508-.009c-1.543-.01-1.548-.01-1.61-.083-.012-.015-.221-.639-.462-1.381s-.45-1.375-.46-1.4A.23.23,0,0,0,14.288-478Z" transform="translate(-9.998 478.009)" fill="#f68121"/>
          </g>
        </g>
      </g>
    </g>
  </g>
</svg>
