<svg xmlns="http://www.w3.org/2000/svg" width="49.4" height="19.617" viewBox="0 0 49.4 19.617">
  <g id="Group_637" data-name="Group 637" transform="translate(-976.5 -5901)">
    <path id="Path_228" data-name="Path 228" d="M191.924,18.443v5.75H190.1V9.993h4.838a4.375,4.375,0,0,1,3.133,1.229,4.105,4.105,0,0,1,0,6.011,4.361,4.361,0,0,1-3.133,1.209h-3.014Zm0-6.7V16.7h3.059a2.456,2.456,0,0,0,1.8-4.2,2.379,2.379,0,0,0-1.8-.753h-3.059Z" transform="translate(807.938 5892.141)" fill="#5f6368"/>
    <path id="Path_229" data-name="Path 229" d="M275.889,46.78a4.523,4.523,0,0,1,3.193,1.081,3.832,3.832,0,0,1,1.169,2.964v5.988h-1.745V55.465h-.079a3.485,3.485,0,0,1-3.014,1.666,3.918,3.918,0,0,1-2.686-.952,3.039,3.039,0,0,1-1.081-2.379,2.885,2.885,0,0,1,1.14-2.4,4.82,4.82,0,0,1,3.043-.893,5.386,5.386,0,0,1,2.676.595v-.417a2.077,2.077,0,0,0-.753-1.615,2.583,2.583,0,0,0-1.761-.665,2.793,2.793,0,0,0-2.419,1.289l-1.607-1.012A4.472,4.472,0,0,1,275.889,46.78Zm-2.36,7.059a1.457,1.457,0,0,0,.605,1.19,2.225,2.225,0,0,0,1.417.476,2.909,2.909,0,0,0,2.052-.852,2.665,2.665,0,0,0,.906-2,3.726,3.726,0,0,0-2.379-.68,3.084,3.084,0,0,0-1.854.536A1.6,1.6,0,0,0,273.529,53.839Z" transform="translate(735.632 5859.521)" fill="#5f6368"/>
    <path id="Path_230" data-name="Path 230" d="M359.939,49.58l-6.091,14h-1.883l2.26-4.9-4.005-9.1H352.2l2.895,6.979h.04l2.816-6.979Z" transform="translate(665.961 5857.038)" fill="#5f6368"/>
    <path id="Path_231" data-name="Path 231" d="M79.834,60.659A9.722,9.722,0,0,0,79.693,59H72v3.142h4.406a3.776,3.776,0,0,1-1.629,2.479V66.66h2.63A7.978,7.978,0,0,0,79.834,60.659Z" transform="translate(912.657 5848.686)" fill="#4285f4"/>
    <path id="Path_232" data-name="Path 232" d="M14.959,92.377a7.807,7.807,0,0,0,5.407-1.969l-2.63-2.039a4.948,4.948,0,0,1-7.357-2.588H7.67v2.1a8.158,8.158,0,0,0,7.289,4.495Z" transform="translate(969.698 5824.94)" fill="#34a853"/>
    <path id="Path_233" data-name="Path 233" d="M3.581,44.894a4.888,4.888,0,0,1,0-3.123v-2.1H.872A8.158,8.158,0,0,0,.872,47Z" transform="translate(976.497 5865.826)" fill="#fbbc04"/>
    <path id="Path_234" data-name="Path 234" d="M14.96,3.225A4.429,4.429,0,0,1,18.09,4.449h0L20.418,2.12A7.838,7.838,0,0,0,14.96,0,8.158,8.158,0,0,0,7.671,4.49l2.709,2.1A4.879,4.879,0,0,1,14.96,3.225Z" transform="translate(969.697 5901.005)" fill="#ea4335"/>
  </g>
</svg>
