<svg xmlns="http://www.w3.org/2000/svg" width="90.009" height="15" viewBox="0 0 90.009 15">
  <g id="Group_641" data-name="Group 641" transform="translate(-1325.5 -5903)">
    <g id="g11008" transform="translate(1325.5 5903)">
      <path id="path1556" d="M2185.8-2355.518h90.009v15H2185.8Z" transform="translate(-2185.797 2355.518)" fill="#004c8f"/>
      <path id="path1558" d="M2233.656-2355.518h75.007v15h-75.007Z" transform="translate(-2218.654 2355.518)" fill="#004c8f"/>
      <path id="path1560" d="M2248.873-2335.814v-7.1h2.335v2.4h2.188v-2.4h2.339v7.1H2253.4v-2.754h-2.188v2.754h-2.335" transform="translate(-2229.101 2346.863)" fill="#fff"/>
      <path id="path1562" d="M2277.547-2341.148h.605a2.505,2.505,0,0,1,.958.136.914.914,0,0,1,.381.311,1.774,1.774,0,0,1,.236.558,3.208,3.208,0,0,1,.081.724,2.614,2.614,0,0,1-.179,1.043,1.206,1.206,0,0,1-.511.607,2.026,2.026,0,0,1-.983.187l-.588,0Zm.9,5.334h0a5.405,5.405,0,0,0,1.38-.145,3.065,3.065,0,0,0,.915-.377,2.655,2.655,0,0,0,.651-.63,3.639,3.639,0,0,0,.5-1.031,4.5,4.5,0,0,0,.2-1.419,4.077,4.077,0,0,0-.451-1.991,2.621,2.621,0,0,0-1.25-1.16,4.707,4.707,0,0,0-1.89-.344h-3.246v7.1h3.186" transform="translate(-2247.218 2346.863)" fill="#fff"/>
      <path id="path1564" d="M2300.486-2335.814v-7.1h5.537v1.75h-3.233v1.137h2.586v1.7h-2.586v2.507h-2.3" transform="translate(-2264.535 2346.863)" fill="#fff"/>
      <path id="path1566" d="M2327.492-2340.615h-2.205a1.308,1.308,0,0,0-.383-.832,1.16,1.16,0,0,0-.817-.292,1.24,1.24,0,0,0-1.007.477,2.467,2.467,0,0,0-.39,1.552,3.009,3.009,0,0,0,.166,1.126,1.24,1.24,0,0,0,.462.577,1.354,1.354,0,0,0,.743.185,1.157,1.157,0,0,0,.855-.3,1.315,1.315,0,0,0,.381-.874h2.244a3.968,3.968,0,0,1-.266,1.113,2.865,2.865,0,0,1-.637.9,3.067,3.067,0,0,1-1.072.7,3.871,3.871,0,0,1-1.437.241,4.547,4.547,0,0,1-1.5-.235,3.278,3.278,0,0,1-1.158-.681,3.309,3.309,0,0,1-.735-1.015,4.077,4.077,0,0,1-.372-1.775,4.353,4.353,0,0,1,.268-1.541,3.467,3.467,0,0,1,.741-1.2,3.2,3.2,0,0,1,1.047-.726,4.067,4.067,0,0,1,1.616-.308,4.5,4.5,0,0,1,1.449.228,2.75,2.75,0,0,1,1.109.672,3.094,3.094,0,0,1,.674,1.022,3.407,3.407,0,0,1,.222.983" transform="translate(-2278.184 2347.281)" fill="#fff"/>
      <path id="path1568" d="M2360.384-2341.314a2.89,2.89,0,0,1,.649.045.651.651,0,0,1,.33.219.581.581,0,0,1,.126.37.55.55,0,0,1-.209.443,1.229,1.229,0,0,1-.758.174h-.879v-1.251Zm.587,5.5h0a6.288,6.288,0,0,0,1.169-.075,3.666,3.666,0,0,0,.692-.245,2.005,2.005,0,0,0,.524-.358,1.665,1.665,0,0,0,.413-.617,2.24,2.24,0,0,0,.147-.826,1.721,1.721,0,0,0-.321-1.067,1.582,1.582,0,0,0-.867-.583,1.73,1.73,0,0,0,.924-1.5,1.593,1.593,0,0,0-.809-1.443,3.834,3.834,0,0,0-1.939-.381h-3.521v7.1Zm-.375-2.973h0a1.6,1.6,0,0,1,.913.175.6.6,0,0,1,.215.487.6.6,0,0,1-.229.5,1.485,1.485,0,0,1-.9.179h-.953v-1.345h.953" transform="translate(-2303.597 2346.863)" fill="#fff"/>
      <path id="path1570" d="M2384.816-2338.2h-1.484l.732-2.582Zm-2.182,2.386h0l.27-.931h2.323l.271.931h2.322l-2.546-7.1H2382.9l-2.549,7.1h2.279" transform="translate(-2319.368 2346.863)" fill="#fff"/>
      <path id="path1572" d="M2407.3-2335.814v-7.1h2.175l2.454,3.8v-3.8h2.237v7.1h-2.222l-2.4-3.706v3.706H2407.3" transform="translate(-2337.866 2346.863)" fill="#fff"/>
      <path id="path1574" d="M2434.165-2335.814v-7.1h2.261v2.341l2.11-2.341h2.743l-2.6,2.672,2.871,4.425h-2.8l-1.707-2.827-.62.613v2.215h-2.261" transform="translate(-2356.31 2346.863)" fill="#fff"/>
      <path id="path1576" d="M2185.8-2355.518h15v15h-15Z" transform="translate(-2185.797 2355.518)" fill="#ed232a"/>
      <path id="path1578" d="M2194.172-2347.142h9.751v9.751h-9.751Z" transform="translate(-2191.547 2349.767)" fill="#fff"/>
      <path id="path1580" d="M2207.332-2355.518h1.5v15h-1.5Z" transform="translate(-2200.581 2355.518)" fill="#fff"/>
      <path id="path1582" d="M2185.8-2333.977h15v1.5h-15Z" transform="translate(-2185.797 2340.729)" fill="#fff"/>
      <path id="path1584" d="M2202.548-2338.766h4.5v4.5h-4.5Z" transform="translate(-2197.297 2344.017)" fill="#004c8f"/>
    </g>
  </g>
</svg>
