<svg id="g10305" xmlns="http://www.w3.org/2000/svg" width="44.75" height="26.792" viewBox="0 0 44.75 26.792">
  <path id="path2268" d="M147.608,15.268a13.393,13.393,0,0,1-26.785.007v-.007a13.393,13.393,0,1,1,26.785-.007Z" transform="translate(-102.858 -1.872)" fill="#f90"/>
  <path id="path1350" d="M15.273,1.895a13.393,13.393,0,1,0,9.1,23.3h0a13.518,13.518,0,0,0,1.36-1.434H22.989a13.08,13.08,0,0,1-1-1.38h4.732a13.414,13.414,0,0,0,.78-1.434H21.21a13.21,13.21,0,0,1-.56-1.407h7.413a13.452,13.452,0,0,0,.381-7.116H20.257a13.353,13.353,0,0,1,.382-1.407h7.416a13.394,13.394,0,0,0-.577-1.434H21.209a12.85,12.85,0,0,1,.768-1.407h4.729a13.421,13.421,0,0,0-1.039-1.434H23.03a12.429,12.429,0,0,1,1.344-1.353,13.345,13.345,0,0,0-9.014-3.49Z" transform="translate(-1.967 -1.891)" fill="#c00"/>
  <path id="use9412" d="M286.709,136.82a.445.445,0,0,1,.213.056.4.4,0,0,1,.162.161.434.434,0,0,1,0,.432.4.4,0,0,1-.16.161.438.438,0,0,1-.431,0,.41.41,0,0,1-.161-.161.435.435,0,0,1,0-.432.4.4,0,0,1,.162-.161.449.449,0,0,1,.213-.056m0,.072a.37.37,0,0,0-.178.047.332.332,0,0,0-.135.134.359.359,0,0,0-.049.18.367.367,0,0,0,.048.18.347.347,0,0,0,.134.134.363.363,0,0,0,.359,0,.342.342,0,0,0,.134-.134.366.366,0,0,0,.047-.18.361.361,0,0,0-.049-.18.329.329,0,0,0-.135-.134.363.363,0,0,0-.177-.047m-.19.6v-.466h.16a.373.373,0,0,1,.118.013.114.114,0,0,1,.059.045.12.12,0,0,1,.022.068.123.123,0,0,1-.037.089.143.143,0,0,1-.1.042.135.135,0,0,1,.04.025.512.512,0,0,1,.069.092l.057.091h-.092l-.041-.073a.375.375,0,0,0-.079-.109.1.1,0,0,0-.06-.016H286.6v.2h-.076m.075-.263h.091a.147.147,0,0,0,.089-.02.064.064,0,0,0,.024-.052.061.061,0,0,0-.011-.037.07.07,0,0,0-.032-.024.234.234,0,0,0-.075-.008H286.6v.141" transform="translate(-243.303 -116.423)" fill="#fcb340"/>
</svg>
