<svg xmlns="http://www.w3.org/2000/svg" width="47.409" height="14.859" viewBox="0 0 47.409 14.859">
  <g id="Group_638" data-name="Group 638" transform="translate(-1060.5 -5903)">
    <g id="g52" transform="translate(1095.054 5905.269)">
      <path id="path54" d="M8.189,1.364A3.159,3.159,0,0,0,5.208-.75H5.179A3.146,3.146,0,0,0,2.9.221,3.149,3.149,0,0,0,.625-.75H.6A3.14,3.14,0,0,0-1.463.015V-.228a.465.465,0,0,0-.463-.431H-4.039a.467.467,0,0,0-.467.468V11.283a.467.467,0,0,0,.467.468h2.113a.465.465,0,0,0,.46-.4V3.111a.74.74,0,0,1,0-.082.77.77,0,0,1,.729-.708h.39A.822.822,0,0,1,.1,2.494a.777.777,0,0,1,.286.617l.008,8.2a.468.468,0,0,0,.467.469H2.976a.467.467,0,0,0,.464-.446V3.1a.776.776,0,0,1,.344-.66.859.859,0,0,1,.389-.13h.39a.772.772,0,0,1,.732.79L5.3,11.285a.467.467,0,0,0,.467.468H7.882a.467.467,0,0,0,.467-.468v-8.8a2.941,2.941,0,0,0-.16-1.118" transform="translate(4.506 0.75)" fill="#54c1f0"/>
    </g>
    <g id="g56" transform="translate(1087.506 5903)">
      <path id="path58" d="M3.831,1.542H2.622V-.416h0V-.422A.426.426,0,0,0,2.2-.848a.425.425,0,0,0-.081.009C.775-.472,1.044,1.384-1.4,1.542H-1.64a.489.489,0,0,0-.1.012h0a.467.467,0,0,0-.366.454V4.122a.468.468,0,0,0,.468.467H-.365l0,8.96a.462.462,0,0,0,.462.462H2.185a.462.462,0,0,0,.461-.462V4.589H3.831A.468.468,0,0,0,4.3,4.122V2.009a.468.468,0,0,0-.467-.467" transform="translate(2.108 0.848)" fill="#54c1f0"/>
    </g>
    <g id="g60" transform="translate(1078.333 5905.39)">
      <path id="path62" d="M4.844,0H2.731a.467.467,0,0,0-.466.467V4.836a.5.5,0,0,1-.495.487H.885a.5.5,0,0,1-.5-.495L.382.467A.468.468,0,0,0-.086,0H-2.2a.467.467,0,0,0-.467.467V5.256A3,3,0,0,0,.451,8.371s1.366,0,1.407.008a.492.492,0,0,1,.007.977l-.036.007-3.09.011a.467.467,0,0,0-.467.467v2.112a.467.467,0,0,0,.467.467H2.194A3,3,0,0,0,5.311,9.3V.467A.467.467,0,0,0,4.844,0" transform="translate(2.666)" fill="#233266"/>
    </g>
    <g id="g64" transform="translate(1060.5 5905.39)">
      <path id="path66" d="M3.155,2.5V3.8a.5.5,0,0,1-.495.5H1.319V1.686H2.66a.494.494,0,0,1,.495.495Zm.186-3.872H-1.278a.458.458,0,0,0-.458.458v2.07s0,.008,0,.012,0,.02,0,.029v9.37a.455.455,0,0,0,.427.468H.844a.467.467,0,0,0,.467-.467l.008-3.211H3.341a2.742,2.742,0,0,0,2.87-2.872V1.5a2.745,2.745,0,0,0-2.87-2.876" transform="translate(1.736 1.374)" fill="#233266"/>
    </g>
    <g id="g68" transform="translate(1069.19 5905.402)">
      <path id="path70" d="M3.2,5.69v.33A.488.488,0,0,1,3.2,6.1a.489.489,0,0,1-.49.388h-.88a.483.483,0,0,1-.5-.465v-.4s0-.01,0-.015v-1.4a.481.481,0,0,1,.5-.462h.88a.482.482,0,0,1,.5.465ZM2.868-3.131H-.064a.455.455,0,0,0-.469.438v.822s0,.011,0,.016,0,.012,0,.018V-.711a.482.482,0,0,0,.5.464H2.756A.486.486,0,0,1,3.176.2V.473a.468.468,0,0,1-.408.434H1.385A2.932,2.932,0,0,0-1.763,3.844V6.3A2.769,2.769,0,0,0,1.189,9.22H5.02A1.206,1.206,0,0,0,6.265,8.058V.041c0-1.944-1-3.171-3.4-3.171" transform="translate(1.763 3.131)" fill="#233266"/>
    </g>
  </g>
</svg>
