<svg xmlns="http://www.w3.org/2000/svg" width="73.127" height="23.25" viewBox="0 0 73.127 23.25">
  <g id="Group_639" data-name="Group 639" transform="translate(-1142.5 -5899)">
    <g id="g34" transform="translate(1142.5 5899)">
      <circle id="ellipse30" cx="9.663" cy="9.663" r="9.663" transform="translate(0 18.809) rotate(-76.714)" fill="#5f259f"/>
      <path id="path32" d="M69.1,26.515V23.006c0-.864-.324-1.3-1.134-1.3a4.281,4.281,0,0,0-.918.108v5.129a.348.348,0,0,1-.324.324H65.486a.348.348,0,0,1-.324-.324V20.955a.47.47,0,0,1,.324-.432,7.747,7.747,0,0,1,2.483-.432c1.943,0,3.023,1.026,3.023,2.915V27a.348.348,0,0,1-.324.324h-.756A.8.8,0,0,1,69.1,26.515Zm4.859-2.105-.054.486a1,1,0,0,0,1.134,1.026,3.424,3.424,0,0,0,1.566-.432c.054,0,.108-.054.162-.054a.28.28,0,0,1,.216.108,2.152,2.152,0,0,1,.162.216,1.14,1.14,0,0,1,.216.54.749.749,0,0,1-.378.648,4.265,4.265,0,0,1-2.051.486,3.267,3.267,0,0,1-2.105-.648,2.528,2.528,0,0,1-.864-1.943V22.737a2.588,2.588,0,0,1,2.915-2.7,2.5,2.5,0,0,1,2.807,2.7v1.3a.348.348,0,0,1-.324.324h-3.4Zm-.054-1.188h2.051v-.54a.979.979,0,0,0-1.026-1.08.954.954,0,0,0-1.026,1.08ZM87.674,24.41l-.054.486a1,1,0,0,0,1.134,1.026,3.424,3.424,0,0,0,1.566-.432c.054,0,.108-.054.162-.054a.28.28,0,0,1,.216.108,2.152,2.152,0,0,1,.162.216,1.14,1.14,0,0,1,.216.54.749.749,0,0,1-.378.648,4.265,4.265,0,0,1-2.051.486,3.267,3.267,0,0,1-2.105-.648,2.528,2.528,0,0,1-.864-1.943V22.737a2.588,2.588,0,0,1,2.915-2.7,2.5,2.5,0,0,1,2.807,2.7v1.3a.348.348,0,0,1-.324.324h-3.4Zm-.054-1.188h2.051v-.54a.979.979,0,0,0-1.026-1.08.954.954,0,0,0-1.026,1.08Zm-31.743,4.1h.756A.348.348,0,0,0,56.956,27V23.006c0-1.835-.972-2.915-2.591-2.915a4.706,4.706,0,0,0-1.35.216v-2a.83.83,0,0,0-.81-.81H51.45a.348.348,0,0,0-.324.324V27a.348.348,0,0,0,.324.324h1.242A.348.348,0,0,0,53.015,27V21.927a2.742,2.742,0,0,1,.918-.162c.81,0,1.134.378,1.134,1.3v3.509A.866.866,0,0,0,55.877,27.325Zm8.152-4.535v2c0,1.674-1.134,2.7-3.023,2.7-1.835,0-3.023-1.026-3.023-2.7v-2c0-1.674,1.134-2.7,3.023-2.7s3.023,1.026,3.023,2.7Zm-1.889,0a.993.993,0,0,0-1.08-1.08.969.969,0,0,0-1.08,1.08v2a1.081,1.081,0,0,0,2.159,0ZM50.1,21.873a2.865,2.865,0,0,1-3.023,2.915,2.905,2.905,0,0,1-1.188-.216V27a.348.348,0,0,1-.324.324H44.324A.348.348,0,0,1,44,27V18.418a.47.47,0,0,1,.324-.432,7.747,7.747,0,0,1,2.483-.432A3,3,0,0,1,50.1,20.577Zm-1.943-1.4a1.249,1.249,0,0,0-1.4-1.3,1.965,1.965,0,0,0-.81.162V22.9a1.584,1.584,0,0,0,.864.216,1.277,1.277,0,0,0,1.4-1.3v-1.35Zm36.818,1.4a2.865,2.865,0,0,1-3.023,2.915,2.905,2.905,0,0,1-1.188-.216V27a.348.348,0,0,1-.324.324H79.2A.348.348,0,0,1,78.874,27V18.418a.47.47,0,0,1,.324-.432,7.748,7.748,0,0,1,2.483-.432,3,3,0,0,1,3.293,3.023Zm-1.943-1.4a1.249,1.249,0,0,0-1.4-1.3,1.965,1.965,0,0,0-.81.162V22.9a1.584,1.584,0,0,0,.864.216,1.277,1.277,0,0,0,1.4-1.3v-1.35Z" transform="translate(-18.271 -9.368)" fill="#5f259f"/>
    </g>
    <path id="path36" d="M18.2,9.421a.715.715,0,0,0-.7-.7H16.2l-2.969-3.4A1.094,1.094,0,0,0,12.1,4.994l-1.026.324a.239.239,0,0,0-.108.378l3.239,3.077H9.295a.255.255,0,0,0-.27.27v.54a.715.715,0,0,0,.7.7h.756v2.591c0,1.943,1.026,3.077,2.753,3.077a3.736,3.736,0,0,0,1.512-.27v1.728a.853.853,0,0,0,.864.864h.756a.348.348,0,0,0,.324-.324v-7.72h1.242a.255.255,0,0,0,.27-.27Zm-3.455,4.643a2.573,2.573,0,0,1-1.08.216c-.864,0-1.3-.432-1.3-1.4V10.285h2.375Z" transform="translate(1140.309 5898.682)" fill="#fff"/>
  </g>
</svg>
