<svg xmlns="http://www.w3.org/2000/svg" width="50.016" height="15" viewBox="0 0 50.016 15">
  <path id="Path_227" data-name="Path 227" d="M-125.965,201.378h1.561a2.267,2.267,0,0,0,1.2-.238,1.368,1.368,0,0,0,.543-.838c.114-.409.086-.685-.076-.847a1.815,1.815,0,0,0-1.161-.238h-1.475Zm-5.235,6.6,3.217-11.574h5.14c1.609,0,2.674.257,3.227.78s.647,1.371.324,2.56a4.366,4.366,0,0,1-.914,1.761,4.214,4.214,0,0,1-1.609,1.1,1.4,1.4,0,0,1,1.085.809,2.951,2.951,0,0,1-.057,1.761l-.39,1.618v.048c-.114.457-.076.695.1.714l-.114.428h-3.474c.01-.276.038-.514.057-.723a4.8,4.8,0,0,1,.086-.485l.324-1.152a1.716,1.716,0,0,0,.019-1.266c-.152-.247-.495-.371-1.037-.371h-1.456l-1.133,3.988Zm21.424-8.537-2.37,8.537h-2.874l.352-1.247a5.555,5.555,0,0,1-1.551,1.114,3.746,3.746,0,0,1-1.637.371,2.58,2.58,0,0,1-1.209-.257,1.686,1.686,0,0,1-.752-.771,2.21,2.21,0,0,1-.19-1.114,12.507,12.507,0,0,1,.466-2.2l1.228-4.435h3.15l-1.228,4.407a2.588,2.588,0,0,0-.133,1.342c.1.247.333.381.723.381a1.32,1.32,0,0,0,1.009-.438,3.094,3.094,0,0,0,.657-1.3l1.218-4.4h3.141Zm4.064,2.17h1.114a3.219,3.219,0,0,0,1.513-.257,1.489,1.489,0,0,0,.609-.923c.124-.447.1-.752-.1-.923a2.294,2.294,0,0,0-1.38-.257h-1.1Zm-5.206,6.367,3.207-11.574h4.416a10.7,10.7,0,0,1,2.265.181,2.8,2.8,0,0,1,1.266.59,2.4,2.4,0,0,1,.733,1.352,4.419,4.419,0,0,1-.162,1.9,5.505,5.505,0,0,1-1.885,2.979,5.37,5.37,0,0,1-3.341,1.028h-2.065l-.99,3.541Zm16.19-3.817a10.478,10.478,0,0,1-1.3.4c-.847.228-1.323.533-1.428.9a.584.584,0,0,0,.076.571.758.758,0,0,0,.6.2,1.925,1.925,0,0,0,1.256-.39,2.458,2.458,0,0,0,.714-1.247c.029-.124.057-.209.067-.276Zm-.761,3.817.029-.809a5.625,5.625,0,0,1-1.542.847,4.941,4.941,0,0,1-1.647.276,2.205,2.205,0,0,1-1.875-.714,2.261,2.261,0,0,1-.171-2.008,3.161,3.161,0,0,1,1.237-1.875,7.2,7.2,0,0,1,2.97-.876c.171-.029.409-.048.7-.086,1.028-.114,1.6-.39,1.723-.838.067-.247.029-.428-.124-.533a1.377,1.377,0,0,0-.809-.171,1.442,1.442,0,0,0-.809.209,1.225,1.225,0,0,0-.485.647h-3.065a3.54,3.54,0,0,1,1.694-2.17,6.6,6.6,0,0,1,3.35-.733,7.053,7.053,0,0,1,1.751.19,2.565,2.565,0,0,1,1.133.523,1.573,1.573,0,0,1,.533.923,3.8,3.8,0,0,1-.181,1.475l-1.323,4.759a1.074,1.074,0,0,0-.029.419.465.465,0,0,0,.171.3l-.067.238h-3.169Zm3.188,3.369.695-2.532h.9a1.243,1.243,0,0,0,.7-.171.916.916,0,0,0,.352-.562,1.434,1.434,0,0,0,.067-.362,3.8,3.8,0,0,0,0-.466l-.485-7.824h3.188l-.048,5.178,2.779-5.178h2.96l-4.921,8.5c-.562.952-.961,1.6-1.218,1.961a3.919,3.919,0,0,1-.733.809,2.671,2.671,0,0,1-1.009.543,6.551,6.551,0,0,1-1.675.162c-.219,0-.466,0-.733-.019-.257,0-.543-.019-.828-.038" transform="translate(131.2 -196.4)" fill="#29387e"/>
</svg>
