<svg xmlns="http://www.w3.org/2000/svg" width="40.866" height="14" viewBox="0 0 40.866 14">
  <g id="Group_640" data-name="Group 640" transform="translate(-1249.5 -5903)">
    <g id="g9996" transform="translate(1249.5 5903)">
      <path id="path2868" d="M52.749,182.933a9.958,9.958,0,0,0-2.564-1.371c-1.175-.486-2.19-.905-2.19-1.683a1.1,1.1,0,0,1,.448-.876,1.95,1.95,0,0,1,1.2-.368,4.472,4.472,0,0,1,2.651,1.048l.286.261,1.3-2.442-.149-.157a5.75,5.75,0,0,0-4.073-1.476,5,5,0,0,0-3.288,1.142,3.794,3.794,0,0,0-1.341,2.9,3.357,3.357,0,0,0,1.3,2.712,10.265,10.265,0,0,0,2.538,1.388c1.209.521,2.254.971,2.254,1.773,0,.61-.414,1.263-1.572,1.263a4.926,4.926,0,0,1-3.009-1.279l-.25-.243-1.619,2.243.161.181a5.5,5.5,0,0,0,1.222.941,6.851,6.851,0,0,0,3.456.923,4.749,4.749,0,0,0,3.344-1.2,3.919,3.919,0,0,0,1.212-2.88,3.448,3.448,0,0,0-1.319-2.8" transform="translate(-28.598 -175.827)" fill="#292075"/>
      <path id="path2870" d="M59.412,189.55h3.033V176.006H59.412Z" transform="translate(-21.579 -175.763)" fill="#292075"/>
      <path id="path2874" d="M57.064,187.015H54.756v-8.472h2.036a1.291,1.291,0,0,1,1.436,1.4,1.221,1.221,0,0,1-1.4,1.354h-.7v2.493h.938a1.671,1.671,0,0,1,1.236.464,1.418,1.418,0,0,1,.436,1.089,1.551,1.551,0,0,1-1.672,1.673m4.027-3.551a3.088,3.088,0,0,0-1.2-1.1,3.408,3.408,0,0,0,1.237-2.716,3.345,3.345,0,0,0-1.237-2.71A4.831,4.831,0,0,0,56.827,176H51.892V189.55h4.99a5.456,5.456,0,0,0,3.311-.968,3.706,3.706,0,0,0,1.461-3.094,3.753,3.753,0,0,0-.563-2.023" transform="translate(-25.16 -175.763)" fill="#292075"/>
      <path id="path2878" d="M40.786,175.841a7.019,7.019,0,0,0-.717,14v-5.1a2.017,2.017,0,1,1,1.433,0v5.1a7.019,7.019,0,0,0-.716-14" transform="translate(-33.783 -175.841)" fill="#00b5ef"/>
    </g>
  </g>
</svg>
