<svg id="g22" xmlns="http://www.w3.org/2000/svg" xmlns:xlink="http://www.w3.org/1999/xlink" width="60.001" height="30" viewBox="0 0 60.001 30">
  <defs>
    <clipPath id="clip-path">
      <path id="path26" d="M0-76.2H60v30H0Z" transform="translate(0 76.2)"/>
    </clipPath>
  </defs>
  <g id="g24" clip-path="url(#clip-path)">
    <g id="g30" transform="translate(4.306 21.519)">
      <path id="path32" d="M-.637,0h.385L-.609,1.493a.64.64,0,0,0,.03.5.452.452,0,0,0,.408.167.708.708,0,0,0,.486-.167.933.933,0,0,0,.27-.5L.942,0h.39L.965,1.53a1.322,1.322,0,0,1-.424.746,1.227,1.227,0,0,1-.8.248.8.8,0,0,1-.679-.247A.887.887,0,0,1-1,1.53Z" transform="translate(1.05)" fill="#696a6a"/>
    </g>
    <g id="g34" transform="translate(6.635 21.421)">
      <path id="path36" d="M0-3.937.612-6.493l1.163,1.5c.031.042.063.088.093.136s.063.1.1.163l.408-1.7h.36L2.12-3.841.933-5.371A1.369,1.369,0,0,1,.844-5.5a1.41,1.41,0,0,1-.076-.144L.358-3.937Z" transform="translate(0 6.493)" fill="#696a6a"/>
    </g>
    <g id="g38" transform="translate(9.335 21.519)">
      <path id="path40" d="M0-3.787.589-6.246H.978L.39-3.787Z" transform="translate(0 6.246)" fill="#696a6a"/>
    </g>
    <g id="g42" transform="translate(10.285 21.519)">
      <path id="path44" d="M0-3.787.589-6.246H1.926l-.081.339H.9L.75-5.293H1.7l-.084.351H.666L.39-3.787Z" transform="translate(0 6.246)" fill="#696a6a"/>
    </g>
    <g id="g46" transform="translate(12.051 21.519)">
      <path id="path48" d="M0-3.787.589-6.246H.978L.39-3.787Z" transform="translate(0 6.246)" fill="#696a6a"/>
    </g>
    <g id="g50" transform="translate(13.001 21.519)">
      <path id="path52" d="M0-3.787.589-6.246H1.926l-.081.339H.9L.749-5.29H1.7l-.084.351H.665l-.19.794h.948l-.086.358Z" transform="translate(0 6.246)" fill="#696a6a"/>
    </g>
    <g id="g54" transform="translate(14.786 21.519)">
      <path id="path56" d="M-.733-3.231h.328a1.77,1.77,0,0,0,.414-.037.779.779,0,0,0,.265-.124,1.041,1.041,0,0,0,.275-.3A1.385,1.385,0,0,0,.715-4.1a1.113,1.113,0,0,0,.031-.412.549.549,0,0,0-.133-.3A.447.447,0,0,0,.4-4.934a1.81,1.81,0,0,0-.434-.037H-.316Zm-.476.361L-.62-5.328h.525a3.162,3.162,0,0,1,.709.053A.725.725,0,0,1,.937-5.1a.749.749,0,0,1,.215.418A1.427,1.427,0,0,1,1.12-4.1a1.792,1.792,0,0,1-.246.58A1.473,1.473,0,0,1,.459-3.1a1.275,1.275,0,0,1-.4.177,2.857,2.857,0,0,1-.637.053h-.63Z" transform="translate(1.209 5.328)" fill="#696a6a"/>
    </g>
    <g id="g58" transform="translate(18.279 21.519)">
      <path id="path60" d="M-1.127-1.583h.1a.981.981,0,0,0,.449-.072.376.376,0,0,0,.169-.255q.047-.2-.049-.277a.686.686,0,0,0-.405-.081h-.1Zm-.1.327-.264,1.1H-1.86l.589-2.459h.589A1.723,1.723,0,0,1-.3-2.582a.448.448,0,0,1,.192.1.416.416,0,0,1,.121.231A.745.745,0,0,1,0-1.934a.991.991,0,0,1-.141.323.786.786,0,0,1-.232.232.745.745,0,0,1-.238.1,1.978,1.978,0,0,1-.392.028H-1.23Z" transform="translate(1.86 2.611)" fill="#696a6a"/>
    </g>
    <g id="g62" transform="translate(19.555 21.421)">
      <path id="path64" d="M-1.637-2.449h.668l-.112-.561c-.005-.036-.01-.077-.015-.123s-.007-.1-.009-.155q-.039.081-.078.15t-.076.128Zm.846.966-.12-.633h-.95l-.43.633H-2.7L-.927-4.04-.38-1.484Z" transform="translate(2.699 4.04)" fill="#696a6a"/>
    </g>
    <g id="g66" transform="translate(22.214 21.519)">
      <path id="path68" d="M-.337-3.787l.269-1.125L-.555-6.246h.409l.3.835c.007.021.015.049.025.084s.019.072.028.113c.024-.039.05-.076.075-.111s.051-.067.076-.1l.713-.825h.39L.319-4.912.05-3.787Z" transform="translate(0.555 6.246)" fill="#696a6a"/>
    </g>
    <g id="g70" transform="translate(23.674 21.414)">
      <path id="path72" d="M-3.813-2.077q0-.029.017-.158.013-.108.02-.178a1.557,1.557,0,0,1-.082.168,1.98,1.98,0,0,1-.109.171l-.941,1.31L-5.216-2.1a1.563,1.563,0,0,1-.03-.16q-.01-.077-.013-.153c-.013.052-.03.106-.051.162s-.045.116-.074.177L-5.931-.863H-6.29l1.18-2.563.336,1.552c0,.025.012.066.021.123s.019.128.031.212q.06-.106.172-.269l.046-.067,1.062-1.55L-3.477-.863h-.362Z" transform="translate(6.29 3.426)" fill="#696a6a"/>
    </g>
    <g id="g74" transform="translate(26.798 21.519)">
      <path id="path76" d="M0-3.787.589-6.246H1.926l-.081.339H.9L.749-5.29H1.7l-.084.351H.665l-.19.794h.948l-.086.358Z" transform="translate(0 6.246)" fill="#696a6a"/>
    </g>
    <g id="g78" transform="translate(28.582 21.421)">
      <path id="path80" d="M0-3.937.612-6.493l1.163,1.5c.031.042.063.088.093.136s.063.1.1.163l.408-1.7h.36L2.12-3.841.933-5.371A1.369,1.369,0,0,1,.844-5.5a1.41,1.41,0,0,1-.076-.144L.358-3.937Z" transform="translate(0 6.493)" fill="#696a6a"/>
    </g>
    <g id="g82" transform="translate(31.531 21.519)">
      <path id="path84" d="M-1.581-.522-2.088,1.6h-.39l.507-2.12h-.637l.081-.339h1.66l-.081.339Z" transform="translate(2.607 0.861)" fill="#696a6a"/>
    </g>
    <g id="g86" transform="translate(32.962 21.463)">
      <path id="path88" d="M0-3.114l.346-.148a.334.334,0,0,0,.1.251.408.408,0,0,0,.281.087.47.47,0,0,0,.3-.1.463.463,0,0,0,.166-.265q.052-.217-.258-.386L.87-3.712a1.2,1.2,0,0,1-.442-.359A.518.518,0,0,1,.39-4.463.843.843,0,0,1,.705-4.95a.905.905,0,0,1,.566-.187.731.731,0,0,1,.418.105.4.4,0,0,1,.175.3l-.343.161a.369.369,0,0,0-.118-.17.3.3,0,0,0-.184-.054.441.441,0,0,0-.27.084A.386.386,0,0,0,.8-4.483q-.053.222.307.413l.043.024a1.026,1.026,0,0,1,.409.328.527.527,0,0,1,.037.4.964.964,0,0,1-.347.555.992.992,0,0,1-.629.206A.677.677,0,0,1,.157-2.7.515.515,0,0,1,0-3.114" transform="translate(0 5.136)" fill="#696a6a"/>
    </g>
    <g id="g90" transform="translate(35.84 21.519)">
      <path id="path92" d="M0-3.787.589-6.246h.39L.39-3.787Z" transform="translate(0 6.246)" fill="#696a6a"/>
    </g>
    <g id="g94" transform="translate(36.79 21.421)">
      <path id="path96" d="M0-3.937.612-6.493l1.163,1.5c.031.042.063.088.093.136s.063.1.1.163l.408-1.7h.36L2.12-3.841.933-5.371A1.37,1.37,0,0,1,.844-5.5a1.438,1.438,0,0,1-.076-.144L.358-3.937Z" transform="translate(0 6.493)" fill="#696a6a"/>
    </g>
    <g id="g98" transform="translate(39.738 21.519)">
      <path id="path100" d="M-1.581-.522-2.088,1.6h-.389l.507-2.12h-.637l.081-.339h1.66l-.081.339Z" transform="translate(2.607 0.861)" fill="#696a6a"/>
    </g>
    <g id="g102" transform="translate(41.189 21.519)">
      <path id="path104" d="M0-3.787.589-6.246H1.926l-.081.339H.9L.749-5.29H1.7l-.084.351H.665l-.19.794h.948l-.086.358Z" transform="translate(0 6.246)" fill="#696a6a"/>
    </g>
    <g id="g106" transform="translate(42.973 21.519)">
      <path id="path108" d="M-1.12-1.614h.071a.877.877,0,0,0,.428-.074A.4.4,0,0,0-.457-1.95q.049-.2-.04-.286a.6.6,0,0,0-.383-.083H-.951Zm-.1.311L-1.483-.2h-.365l.589-2.459h.543a1.548,1.548,0,0,1,.363.032.432.432,0,0,1,.2.106.427.427,0,0,1,.117.23.739.739,0,0,1-.014.309.9.9,0,0,1-.25.463.791.791,0,0,1-.459.2L-.2-.2H-.641l-.534-1.1Z" transform="translate(1.848 2.662)" fill="#696a6a"/>
    </g>
    <g id="g110" transform="translate(44.851 21.519)">
      <path id="path112" d="M0-3.787.589-6.246H1.926l-.081.339H.9L.75-5.293H1.7l-.084.351H.666L.39-3.787Z" transform="translate(0 6.246)" fill="#696a6a"/>
    </g>
    <g id="g114" transform="translate(46.166 21.421)">
      <path id="path116" d="M-1.637-2.449h.668l-.112-.561q-.008-.054-.015-.123c0-.047-.007-.1-.009-.155q-.039.081-.078.15t-.076.128Zm.846.966-.12-.633h-.95l-.43.633H-2.7L-.927-4.04-.38-1.484Z" transform="translate(2.699 4.04)" fill="#696a6a"/>
    </g>
    <g id="g118" transform="translate(48.8 21.46)">
      <path id="path120" d="M-3.422-1.011a.86.86,0,0,0-.3-.217.925.925,0,0,0-.37-.072,1.061,1.061,0,0,0-.7.259,1.22,1.22,0,0,0-.407.67.791.791,0,0,0,.083.657.614.614,0,0,0,.543.259A1.223,1.223,0,0,0-4.148.467,1.738,1.738,0,0,0-3.723.233l-.108.452a1.5,1.5,0,0,1-.383.173,1.5,1.5,0,0,1-.415.057A1.2,1.2,0,0,1-5.116.823.84.84,0,0,1-5.461.55.9.9,0,0,1-5.63.135,1.317,1.317,0,0,1-5.6-.375a1.665,1.665,0,0,1,.216-.508A1.726,1.726,0,0,1-5.014-1.3a1.656,1.656,0,0,1,.475-.275,1.5,1.5,0,0,1,.522-.093,1.143,1.143,0,0,1,.388.063,1.029,1.029,0,0,1,.326.191Z" transform="translate(5.644 1.668)" fill="#696a6a"/>
    </g>
    <g id="g122" transform="translate(51.06 21.519)">
      <path id="path124" d="M0-3.787.589-6.246H1.926l-.081.339H.9L.749-5.29H1.7l-.084.351H.665l-.19.794h.948l-.086.358Z" transform="translate(0 6.246)" fill="#696a6a"/>
    </g>
    <g id="g126" transform="translate(41.275 5.924)">
      <path id="path128" d="M-4.124-20.716H-6.8l3.725-13.452H-.4Z" transform="translate(6.803 34.169)" fill="#66686c"/>
    </g>
    <g id="g130" transform="translate(23.244 5.964)">
      <path id="path132" d="M-29.751-.593a.993.993,0,0,0-.861-.385H-45.34l-.729,2.635h2.68v0h10.718l-.78,2.816H-44.169V4.465h-2.679l-2.223,8.026h2.68L-44.9,7.1H-32.85a1.712,1.712,0,0,0,1.063-.385,1.787,1.787,0,0,0,.656-.952L-29.639.379a1.094,1.094,0,0,0-.112-.972" transform="translate(49.07 0.978)" fill="#66686c"/>
    </g>
    <g id="g134" transform="translate(5.663 5.963)">
      <path id="path136" d="M-24.671-19.363a1.231,1.231,0,0,1-1.186.9H-39.675a.965.965,0,0,1-.84-.385,1.07,1.07,0,0,1-.118-.952l3.372-12.137h2.681L-37.593-21.1H-26.87l3.012-10.84h2.68Z" transform="translate(40.691 31.936)" fill="#66686c"/>
    </g>
    <g id="g138" transform="translate(48.567 5.949)">
      <path id="path140" d="M-5.755,0l3.391,6.744-7.128,6.742Z" transform="translate(9.493)" fill="#27803b"/>
    </g>
    <g id="g142" transform="translate(46.184 5.949)">
      <path id="path144" d="M-5.764,0l3.388,6.744-7.131,6.742Z" transform="translate(9.506)" fill="#e9661c"/>
    </g>
  </g>
</svg>
