<svg xmlns="http://www.w3.org/2000/svg" width="46.348" height="15" viewBox="0 0 46.348 15">
  <g id="Group_636" data-name="Group 636" transform="translate(-725.5 -5903)">
    <path id="polygon9" d="M437.262,125.247h-3.755l2.348-14.52h3.754Z" transform="translate(308.323 5792.536)" fill="#00579f"/>
    <path id="path11" d="M576.441,105.666a9.253,9.253,0,0,0-3.368-.618c-3.708,0-6.319,1.977-6.335,4.8-.031,2.086,1.869,3.244,3.291,3.939,1.453.711,1.946,1.174,1.946,1.808-.015.973-1.174,1.421-2.255,1.421a7.473,7.473,0,0,1-3.523-.772l-.494-.232-.525,3.26a11.427,11.427,0,0,0,4.187.773c3.939,0,6.5-1.947,6.535-4.959.015-1.653-.988-2.92-3.151-3.954-1.313-.664-2.117-1.112-2.117-1.792.015-.618.68-1.251,2.163-1.251a6.379,6.379,0,0,1,2.8.556l.34.154.511-3.136Z" transform="translate(182.753 5797.952)" fill="#00579f"/>
    <path id="path13" d="M796.331,120.1c.309-.834,1.5-4.063,1.5-4.063-.016.031.309-.85.494-1.39l.262,1.251s.711,3.476.865,4.2Zm4.635-9.376h-2.9a1.853,1.853,0,0,0-1.962,1.2l-5.577,13.315h3.94l.788-2.178h4.82c.108.51.448,2.178.448,2.178h3.476l-3.029-14.52Z" transform="translate(-32.146 5792.536)" fill="#00579f"/>
    <path id="path15" d="M175.105,110.727l-3.677,9.9-.4-2.008a11.114,11.114,0,0,0-5.191-6.086l3.368,12.7h3.97l5.9-14.5Z" transform="translate(563.589 5792.536)" fill="#00579f"/>
    <path id="path17" d="M87.268,110.727H81.228l-.062.293c4.712,1.2,7.833,4.109,9.115,7.6l-1.313-6.673a1.554,1.554,0,0,0-1.7-1.221Z" transform="translate(644.334 5792.536)" fill="#faa61a"/>
  </g>
</svg>
