<?xml version="1.0" standalone="no"?>
<!DOCTYPE svg PUBLIC "-//W3C//DTD SVG 1.1//EN" "http://www.w3.org/Graphics/SVG/1.1/DTD/svg11.dtd" >
<svg xmlns="http://www.w3.org/2000/svg">
<metadata></metadata>
<defs>
<font id="hello_kittyregular" horiz-adv-x="1139" >
<font-face units-per-em="2048" ascent="1638" descent="-410" />
<missing-glyph horiz-adv-x="569" />
<glyph horiz-adv-x="0" />
<glyph unicode="&#xd;" horiz-adv-x="569" />
<glyph unicode=" "  horiz-adv-x="569" />
<glyph unicode="&#x09;" horiz-adv-x="569" />
<glyph unicode="&#xa0;" horiz-adv-x="569" />
<glyph unicode="!" horiz-adv-x="152" d="M0 436v175l87 1134v97l10 10h19q29 0 29 -39q0 -157 -87 -1144v-252l10 -68l-29 -19h-10q-29 0 -29 106zM10 29v39l29 29h29l38 -39v-19l-38 -39h-29z" />
<glyph unicode="&#x22;" horiz-adv-x="334" d="M24 1357v11q88 77 95 116l-42 84v10l21 21h21q31 0 53 -94v-63q-63 -106 -127 -106zM172 1357v11q87 77 94 116l-42 84v10l21 21h21q32 0 53 -94v-63q-62 -106 -126 -106z" />
<glyph unicode="#" horiz-adv-x="892" d="M5 562v7l21 21h7q247 0 247 41l35 179l-282 -28l-14 21v7q0 14 303 41q55 258 130 331h7l14 -14v-14q-55 -80 -110 -296l227 28q44 174 110 275h14l14 -13q-97 -227 -97 -269h7q205 -7 255 -62v-7q0 -14 -21 -14q-116 42 -227 42h-27l-35 -200h69q138 0 227 -55v-14 l-14 -14q-116 42 -213 42h-76q-58 -400 -89 -400l-21 21l69 379q-227 -14 -227 -35q-47 -344 -76 -344h-7l-13 13l55 338h-7q-80 -21 -227 -21h-14zM322 617h7l213 28l34 193h-7q-220 -10 -220 -42z" />
<glyph unicode="$" horiz-adv-x="618" d="M6 600v5l11 11h5q15 -6 38 -71q64 -60 137 -60h65l11 11v87q0 139 16 343q-174 16 -174 147v6q0 152 223 278q45 0 60 109q39 112 49 114h11l11 -11l-60 -191h5l22 6q132 0 153 -93v-11q0 -115 -207 -179h-22l-6 5h-5l-22 -158h6q201 0 256 -136l5 -54v-17 q0 -158 -289 -278l17 -185l-6 -5h-16q-15 0 -27 185l-6 -5h-70q-146 0 -191 147zM148 1068q17 -109 130 -109l17 -5l27 168l-11 33v11q23 0 38 114q7 0 11 49h-6q-206 -112 -206 -256v-5zM305 496q187 73 245 196l11 49v17q0 104 -98 136l-141 27q-17 -189 -17 -327v-98z M354 1133h22q83 0 169 109l11 33v11q0 56 -114 65q-49 0 -49 -33z" />
<glyph unicode="%" horiz-adv-x="654" d="M0 1494v37q0 118 174 156l37 -28v-9q0 -16 -110 -36q-46 -53 -46 -92v-28q0 -82 110 -82h9q86 0 110 119v28l-9 91q62 0 339 202h19l18 -28q-143 -586 -495 -1604q-46 -220 -73 -220h-10q-18 0 -18 28q125 486 413 1311q110 353 110 421q-147 -107 -239 -146v-74 q-28 -183 -174 -183q-165 20 -165 137zM284 312q37 183 184 183q116 0 155 -174q0 -135 -183 -174q-128 0 -156 165zM339 303q0 -75 101 -101q128 22 128 128q-27 110 -110 110q-119 -30 -119 -119v-18z" />
<glyph unicode="&#x26;" horiz-adv-x="839" d="M0 361v74q0 239 342 749l-28 324v92q34 250 148 250h9q102 0 102 -176v-18q0 -172 -166 -481v-9q88 -665 203 -796q90 227 139 287h18q19 0 19 -28l-148 -333q79 -135 194 -268v-9l-18 -19h-19q-75 72 -194 241q-155 -232 -287 -232h-46q-213 0 -268 352zM55 361 q41 -305 241 -305q125 0 277 249q-189 421 -212 796q-306 -433 -306 -666v-74zM370 1508l18 -231q130 204 130 379v18q0 61 -28 121h-37q-83 -65 -83 -195v-92z" />
<glyph unicode="'" horiz-adv-x="189" d="M13 1322v12q100 88 108 132l-48 96v12l24 24h24q36 0 60 -108v-72q-71 -120 -144 -120z" />
<glyph unicode="(" horiz-adv-x="357" d="M0 834v107q0 510 230 870l41 41h8l25 -25q-255 -333 -255 -895v-106q0 -604 312 -887v-16q0 -17 -25 -17q-172 126 -246 369q-90 262 -90 559z" />
<glyph unicode=")" horiz-adv-x="366" d="M0 -64q312 282 312 919v33q0 600 -255 935v9l17 16h16q271 -333 271 -944v-24q0 -706 -336 -977h-9l-16 17v16z" />
<glyph unicode="*" horiz-adv-x="427" d="M15 1476v14q0 27 140 43q-56 80 -56 119l7 7h21l63 -98q17 117 43 133h7l21 -14l-21 -70v-7h7q0 18 91 112h14l14 -14v-7l-112 -140v-7h105q52 0 56 -21v-7l-14 -22l-35 7h-126q70 -83 70 -112l-21 -14l-78 91v-140l-14 -14h-7l-21 21v105l-91 -105l-21 21v7l91 126h-7 l-119 -21z" />
<glyph unicode="+" horiz-adv-x="812" d="M5 578v16q0 35 362 65q39 346 65 346h16l16 -16q-40 -207 -40 -322l-8 -8h24q198 0 346 40l16 -24v-8q0 -42 -370 -57h-16q-28 -370 -57 -370h-8l-24 16l40 346q-130 0 -354 -32z" />
<glyph unicode="," horiz-adv-x="189" d="M0 -131q106 93 114 139l-50 102v13l25 25h25q39 0 64 -114v-76q-75 -128 -153 -128l-25 26v13z" />
<glyph unicode="-" horiz-adv-x="512" d="M5 649v8l18 18l446 17l9 -8v-18l-26 -26h-9l-420 -18z" />
<glyph unicode="." horiz-adv-x="132" d="M0 39v51l39 39h51q30 0 39 -64q-21 -65 -77 -65q-52 19 -52 39z" />
<glyph unicode="/" horiz-adv-x="569" d="M0 -95q319 835 580 1940l7 7h15l14 -14q-188 -855 -428 -1521q-127 -397 -166 -427h-8z" />
<glyph unicode="0" horiz-adv-x="761" d="M0 641v73q0 497 266 970h18q18 0 18 -27q-247 -491 -247 -925v-91q18 -521 192 -577l46 -9h18q192 0 330 641q64 306 64 613q0 414 -137 494h-37q-142 0 -229 -357l-9 -9h-9l-28 27q0 167 174 357q70 37 110 37h19q135 0 183 -320l18 -238q0 -791 -311 -1236 q-83 -64 -156 -64q-232 0 -284 485z" />
<glyph unicode="1" horiz-adv-x="296" d="M0 1484v26q147 96 338 338h18l17 -17l-226 -1232q-34 -189 -69 -599h-17l-26 17q0 384 269 1701v9q-217 -252 -295 -252z" />
<glyph unicode="2" horiz-adv-x="777" d="M0 135v27q36 190 171 190q68 0 162 -136h18q235 379 235 875v108q0 468 -244 595h-63q-67 0 -198 -144l-18 18v27q108 153 225 153h27q252 0 325 -577v-198q0 -510 -262 -902q136 -117 253 -117l117 27l18 -18v-9q-36 -54 -153 -54t-271 135q-116 -117 -207 -117 q-135 30 -135 117zM54 126q31 -54 90 -54q58 0 162 99q0 30 -126 126h-45q-81 -61 -81 -126v-45z" />
<glyph unicode="3" horiz-adv-x="847" d="M0 258v9l18 18h9q184 -232 329 -232h89q186 0 312 294l18 143v71q0 273 -178 463h-18q-75 -98 -169 -98h-18q-74 0 -89 98q0 94 133 116h27q46 0 116 -36q53 144 53 267v63q0 307 -240 365h-36q-145 0 -240 -241h-27l-18 18q95 276 303 276h27q204 0 276 -347l9 -98v-36 q0 -160 -72 -303q110 -54 196 -338l18 -169v-53q0 -390 -356 -508h-98q-217 0 -374 258zM356 1015l27 -36h35q64 0 125 81v8l-80 18h-36q-71 -9 -71 -71z" />
<glyph unicode="4" horiz-adv-x="769" d="M0 919q126 162 207 487l63 379h18l27 -27q0 -275 -189 -748l27 9q99 0 307 -181h9l9 45q0 375 144 965h27l18 -18q-144 -667 -144 -1028h54q135 43 135 172v81l-18 126l9 9h27q26 0 36 -135v-81q-44 -226 -198 -226h-45v-171l27 -568l-9 -9h-18q-54 0 -54 577v189 q-237 199 -316 199q-44 0 -117 -73h-18q-18 0 -18 27z" />
<glyph unicode="5" horiz-adv-x="732" d="M0 222q0 258 222 360h64q133 0 268 -222h9q65 198 65 351v93q0 317 -203 360q-209 0 -370 -323l-27 -28h-10l-18 19q194 602 194 840l28 10l55 -19h28q168 0 378 185h10l18 -18v-19q-209 -203 -406 -203h-46l-10 9h-9q0 -184 -111 -554q149 146 296 157q219 0 258 -407 v-102q0 -195 -92 -415q24 0 55 -111v-9l-18 -19h-9q-18 1 -56 92h-9q-214 -249 -379 -249q-145 0 -175 222zM55 222q0 -146 120 -167q251 77 342 231l9 10v9q-135 231 -258 231q-213 -64 -213 -314z" />
<glyph unicode="6" horiz-adv-x="744" d="M0 692v87q0 532 375 913q183 154 307 163l19 -19v-10l-211 -106q-432 -371 -432 -941v-87q45 -634 307 -634h29q278 71 278 346q-50 278 -240 278q-187 0 -230 -307q0 -120 115 -212v-19l-19 -19h-10q-144 93 -144 250q0 241 211 346l68 19q256 0 307 -356 q-73 -384 -355 -384h-10q-277 0 -355 567z" />
<glyph unicode="7" horiz-adv-x="917" d="M0 1626v28q43 194 194 194h37q67 0 453 -139h37q79 0 166 111l28 -27q-462 -947 -462 -1562v-55l9 -158l-28 -18q-37 0 -37 203v19q0 590 398 1441h-9l-65 -9q-51 0 -462 139h-56q-148 -26 -148 -130v-46q0 -53 93 -111v-9l-19 -19h-9q-93 0 -120 148z" />
<glyph unicode="8" horiz-adv-x="652" d="M0 421v84q0 301 383 711q-93 250 -93 365v9q32 262 196 262q128 0 159 -187v-9q0 -195 -196 -440q196 -462 196 -673v-75q0 -255 -243 -449l-94 -19q-243 0 -308 421zM56 430q0 -276 224 -374h47q155 0 262 365v122q0 205 -178 617h-9q-346 -384 -346 -655v-75zM346 1581 q0 -109 75 -309q168 218 168 365v28q0 84 -75 131h-37q-96 0 -131 -178v-37z" />
<glyph unicode="9" horiz-adv-x="677" d="M0 1352v44q0 250 256 424q58 35 133 35h9q89 0 159 -97v-18l-18 -17h-9q-78 79 -123 79h-36q-180 0 -309 -318l-9 -79v-53q36 -186 177 -186q245 0 380 327l26 26h9q18 0 18 -26q-203 -834 -203 -1396v-79l-18 -18h-18l-17 18v70q0 531 159 1202v9h-9 q-142 -186 -327 -186q-179 0 -230 239z" />
<glyph unicode=":" horiz-adv-x="147" d="M0 36v49l36 36h49q27 0 36 -61q-20 -60 -73 -60q-48 18 -48 36zM0 906v49l36 36h49q27 0 36 -60q-20 -61 -73 -61q-48 18 -48 36z" />
<glyph unicode=";" horiz-adv-x="174" d="M0 -219q82 101 82 152v47q0 43 -47 106v11l36 36q51 0 82 -164v-24q0 -109 -106 -200h-23l-24 24v12zM12 920v35l35 35h47l35 -35v-35q-5 -25 -58 -47q-54 22 -59 47z" />
<glyph unicode="&#x3c;" horiz-adv-x="909" d="M5 858v10q488 265 875 389l10 -10v-19q-16 -29 -321 -146l-476 -224v-10q327 -193 778 -379v-20l-20 -19h-10q-675 260 -836 428z" />
<glyph unicode="=" horiz-adv-x="802" d="M5 829v10q121 136 418 136h350l19 -19v-10l-29 -29h-340q-249 0 -379 -107h-20zM15 480v19q93 146 476 146h292l19 -20v-19l-19 -19h-292q-324 0 -447 -117h-20z" />
<glyph unicode="&#x3e;" horiz-adv-x="917" d="M5 1249v19q0 20 30 20q365 -128 867 -394v-10q-163 -170 -848 -434h-10l-19 20v10q27 27 532 246l256 148v10z" />
<glyph unicode="?" horiz-adv-x="899" d="M0 1544v11q279 287 543 287h43q319 -49 319 -298q0 -137 -298 -554q-62 -136 -75 -234q13 -115 75 -202v-11l-32 -32q-107 106 -107 245q0 169 320 628q53 99 53 160q-46 234 -234 234h-64q-229 0 -511 -266zM511 32v43l32 31h32q43 -17 43 -74l-43 -32h-32z" />
<glyph unicode="@" horiz-adv-x="865" d="M5 582v58q0 315 335 510l108 17h34q270 0 376 -334v-67q0 -156 -217 -234h-42q-109 30 -109 100h-8q-98 -167 -176 -167h-8q-67 0 -67 92q61 301 217 301q53 0 101 -67v-17l-17 -17h-9q-50 50 -83 50h-17q-142 -96 -142 -267l8 -25h25q107 60 159 217q0 25 17 25h8 q20 0 42 -133q27 -42 67 -42h8q193 48 193 184v33q0 219 -285 318h-91q-204 0 -352 -335q-25 -78 -25 -142v-58q34 -360 343 -360h50l101 9l16 -26q0 -33 -117 -33h-50q-346 0 -393 410z" />
<glyph unicode="A" horiz-adv-x="1237" d="M0 106v79q0 554 451 1273q300 392 539 392h69q146 -107 146 -216l21 -176q0 -568 -344 -1322q0 -238 158 -450q83 -59 186 -59q216 31 216 205q-27 98 -99 98h-117l-21 20v10q11 28 60 28h68q167 -29 167 -165q0 -198 -265 -256h-19q-303 0 -383 471h-9 q-216 -382 -471 -382q-306 0 -353 450zM58 125q0 -255 148 -362q73 -49 137 -49h10q232 0 471 422l-11 195v353q0 798 187 1108h-29q-283 0 -648 -667q-265 -542 -265 -912v-88zM873 252h9q284 719 284 1215q0 295 -117 295q-137 -81 -176 -1087v-423z" />
<glyph unicode="B" horiz-adv-x="1443" d="M0 120v9q0 154 148 222l83 18q139 -31 139 -129v-18l-18 -19h-9q-61 102 -74 102l-47 9q-167 -40 -167 -166v-46q0 -230 352 -342h10q277 753 277 998h-10l-27 -8q-93 0 -139 73v18q0 90 149 112h64q36 376 36 583l-9 221l9 10h29l9 -10h9l10 -231l-28 -573l166 -38 q324 211 324 500q0 290 -462 380h-130q-307 0 -380 -231v-38q22 -121 167 -121q112 0 112 84v9q0 102 -84 102h-9l-38 -28h-18l-18 19v9q32 55 83 55q118 0 139 -148v-9q0 -148 -186 -148q-203 34 -203 186v9q0 202 315 296l120 9h56q409 0 573 -324l18 -138 q0 -247 -314 -500v-9q407 -194 407 -565q0 -413 -536 -592q-167 -36 -305 -36h-57l-92 9q-46 -121 -65 -121h-9l-18 19v10l36 101q-388 134 -388 416zM472 -250l9 -9h112q563 0 758 407l28 176q0 347 -417 526l-204 -83q-127 -640 -277 -1007zM574 841q0 -27 83 -36l55 9v36 l10 47h-46q-102 -14 -102 -47v-9zM767 833h10l111 36v10l-111 18l-10 -47v-17z" />
<glyph unicode="C" horiz-adv-x="1490" d="M0 452v117q0 774 452 1190q116 89 237 89h58q200 0 305 -275l10 -79v-20q-40 -305 -286 -305q-275 58 -275 275q31 198 188 198h39q147 -17 147 -138q-12 -50 -29 -50h-20q-20 0 -20 30l10 39q-20 60 -78 60h-39q-139 0 -139 -139v-9q0 -167 226 -207q190 0 217 246v20 q0 217 -236 295h-98q-275 0 -512 -590q-98 -320 -98 -600v-147q0 -562 432 -776q150 -49 276 -49q462 0 629 481q15 118 40 118h9l30 -20q0 -196 -226 -462q-233 -177 -492 -177q-522 0 -708 560q-49 178 -49 325z" />
<glyph unicode="D" horiz-adv-x="1845" d="M0 115v19q46 317 308 317h56q148 0 187 -252q-24 -187 -177 -187q-206 26 -206 150q10 65 28 65h10l28 -28l-10 -37q0 -75 131 -94h28q112 0 112 140q-29 187 -140 187h-65q-234 -46 -234 -261v-38q0 -219 439 -308q141 300 281 1057q103 541 103 832l9 9h29q19 0 19 -28 q0 -554 -310 -1692l-75 -196h10l131 -10h112q490 0 805 411q168 256 168 590q0 618 -533 934q-181 94 -356 94h-66q-266 0 -317 -178v-18q22 -112 112 -112h19q74 0 84 74v19q0 56 -94 56l-9 9v28l19 19h37q103 -15 103 -103v-37q-26 -122 -150 -122q-177 29 -177 178 q55 243 373 243h66q501 0 833 -570q112 -276 112 -514q0 -737 -701 -1001q-175 -56 -328 -56h-103l-178 19q-60 -132 -93 -150q-23 0 -28 39l65 120q-467 109 -467 383z" />
<glyph unicode="E" horiz-adv-x="1509" d="M0 255v59q0 329 315 630h10q-167 137 -167 296q0 340 433 572l157 30h71q278 0 334 -256v-69q0 -138 -147 -138q-99 0 -148 158q42 118 118 118l20 -30v-10q-79 -55 -79 -78q26 -99 108 -99q79 6 79 108q-37 237 -276 237h-80q-320 0 -512 -424l-19 -109q0 -160 147 -256 h10q81 58 177 69q117 0 148 -89q-43 -89 -157 -89h-40q-50 0 -128 40q-315 -306 -315 -581v-89q0 -424 492 -602l168 -19q401 0 651 373q79 154 79 277q0 87 -59 266l20 20h19q38 0 79 -276q0 -422 -483 -651q-165 -69 -316 -69q-464 0 -679 493zM433 954l69 -10h40l88 20 v20l-79 20q-118 -25 -118 -50z" />
<glyph unicode="F" horiz-adv-x="1149" d="M0 1287v27q0 194 216 279q159 52 650 73q207 53 207 153l9 9q0 27 18 27h9l27 -19l-109 -909q36 17 100 17l9 -9v-18q0 -24 -117 -45q-226 -1307 -713 -1307q-90 8 -90 28v18l19 17l81 -8q425 0 640 1225h-9l-235 -108l-18 18v9q11 33 280 153l90 776h-9 q-117 -108 -631 -108q-239 -36 -307 -109q-63 -74 -63 -144v-54q34 -154 208 -154q95 0 126 136q0 72 -99 90q-59 0 -73 -90l-9 -9h-8l-27 27v18q0 89 126 108q144 -38 144 -144q0 -153 -199 -189q-243 43 -243 216z" />
<glyph unicode="G" horiz-adv-x="1498" d="M0 493v96q0 551 620 1092q314 171 503 171h43q273 0 343 -278v-54q-43 -246 -225 -246h-11q-165 0 -203 182q0 175 214 204l21 -33l-139 -74l-32 -97q0 -88 129 -118h31q121 0 150 182q0 175 -139 236q-52 32 -139 32h-43q-440 0 -835 -556q-224 -342 -224 -643v-63 q0 -382 278 -535l140 -21q384 0 823 534h22q48 0 96 -481l11 -128q87 31 150 31l21 -31q0 -29 -171 -65q0 -639 -290 -791l-117 -33h-54q-149 0 -192 258q0 320 588 610q-21 357 -64 533q-429 -502 -834 -502q-395 0 -471 588zM845 -736q0 -166 140 -193h53q101 0 235 183 q96 250 96 545q-366 -150 -503 -428z" />
<glyph unicode="H" horiz-adv-x="2074" d="M0 1446v55q0 222 337 338l74 9h46q338 0 410 -520l10 -175q0 -152 -55 -511q139 0 511 83q0 171 183 721q139 298 210 356h9l18 -18v-19q-250 -331 -365 -1032h10l81 10l19 -28q0 -30 -110 -36q-18 -56 -18 -237v-165q0 -542 319 -658h64q248 59 248 329 q-25 192 -175 192h-27q-158 0 -210 -220q31 -154 146 -154h18q76 0 101 109q0 59 -82 128v8l19 19h17q101 -53 101 -164q0 -116 -164 -156q-210 44 -210 210q0 147 164 247q45 27 119 27h8q199 0 229 -264q0 -233 -229 -347l-73 -19h-18q-324 0 -410 566l-10 164v129l10 246 q-355 -82 -503 -82h-19q-109 -601 -237 -1014h-19q-17 0 -17 29q100 383 219 985h-19q-118 7 -118 36v10l18 19l127 -10h10q55 348 55 530q0 466 -246 603l-119 19h-46q-263 0 -357 -285v-63q50 -201 175 -201h35q175 37 175 156v27q-16 127 -110 127h-19 q-109 -21 -109 -109q0 -29 55 -82v-19l-19 -17h-8q-83 38 -83 137q0 100 164 146h10q173 -31 173 -175v-27q0 -169 -229 -219h-27q-178 0 -237 256z" />
<glyph unicode="I" horiz-adv-x="1371" d="M0 -73q43 313 276 313q171 0 210 -266q0 -138 -182 -171h-37q-105 0 -115 132q10 58 28 58h10l29 -19l-10 -47q0 -67 67 -67h38q114 22 114 114v28q-39 181 -152 181h-19q-152 0 -200 -238v-67q0 -134 180 -200l134 -18q245 0 437 180v10q-247 379 -247 1028v18 q0 547 219 857q100 95 190 95h49q262 0 332 -609l10 -86q0 -771 -466 -1322q69 -108 257 -228v-20q0 -19 -28 -19q-126 49 -267 229h-10q-231 -190 -476 -190q-371 42 -371 275v49zM618 868q0 -658 249 -990q437 543 437 1266q0 347 -162 580q-68 67 -114 67h-58 q-298 0 -352 -885v-38z" />
<glyph unicode="J" horiz-adv-x="831" d="M0 1136v75q0 428 384 637l56 9h19q327 0 327 -1180q-8 -502 -27 -674q184 -61 196 -85v-9l-19 -18q-45 0 -177 56q-128 -947 -459 -947q-127 0 -160 198v94q0 215 338 542h18l19 -18v-10q-319 -330 -319 -514v-94q17 -141 113 -141q211 0 346 599q38 113 38 329 q-250 144 -449 439q-236 379 -244 712zM56 1146q0 -501 497 -1003l150 -103h8l19 655q0 846 -187 1068q-39 38 -74 38h-38q-141 0 -318 -309q-57 -140 -57 -281v-65z" />
<glyph unicode="K" horiz-adv-x="1456" d="M0 1464v25q0 239 295 352l66 9h40q190 0 337 -304q107 -256 107 -608v-24q0 -157 -17 -238h9q399 123 639 493q119 166 255 410h16l17 -16q-28 -122 -345 -550q-260 -282 -443 -337l-123 -49l328 -747q127 -214 304 -214q182 0 295 198h17l16 -17q0 -97 -205 -205 l-123 -25q-297 0 -467 533l-190 427q-15 0 -57 -246q-156 -543 -320 -844q-35 -83 -65 -108h-9l-24 26q168 282 328 787q90 340 90 410h-66q-44 0 -66 41v25q0 69 50 98h25q31 0 74 -41l7 123v90q0 642 -303 838l-91 25h-40q-221 0 -312 -279v-75q0 -144 189 -213h24 q185 0 222 189v41q0 127 -164 140q-148 -22 -148 -140q0 -74 90 -107q39 0 82 66h17q16 0 16 -24q-39 -91 -106 -91q-117 0 -148 165q0 150 214 181q196 -37 196 -190v-41q0 -181 -246 -238h-33q-156 0 -245 214zM689 652h82v8q-13 37 -49 58h-24l-9 -42v-24z" />
<glyph unicode="L" horiz-adv-x="999" d="M0 -409q186 381 186 675l9 136q0 136 -77 701v102q0 451 347 617l127 26h34q204 0 279 -212l17 -109q0 -190 -203 -271q-33 -17 -93 -17q-263 48 -263 220v50q0 137 229 170q169 -16 169 -144v-8q-15 -118 -101 -118h-34l-16 17v7q0 26 67 26l34 42v43q0 84 -136 84 q-160 -26 -160 -127v-51q41 -160 228 -160q198 0 229 254q-30 254 -246 254h-34q-267 0 -389 -365q-34 -101 -34 -228v-67l76 -652v-100q0 -364 -151 -719q44 25 202 42l651 -76q233 0 330 203q32 152 52 152h16l17 -17q0 -140 -153 -304q-109 -85 -278 -85l-635 76 q-130 0 -279 -85h-8l-9 9v9z" />
<glyph unicode="M" horiz-adv-x="1967" d="M0 1494v33q0 212 208 298l66 17h33q297 0 416 -556h8q247 436 474 490q157 0 157 -317v-124l-8 -133v-8h8q222 481 391 481h8q141 0 141 -364q-75 -839 -75 -997v-83q0 -474 200 -597l58 -17h58q111 0 141 174l-8 58l8 8h25q20 0 25 -74q-41 -217 -200 -217h-41 q-214 0 -299 416l-16 249v66q0 170 74 1014v16q0 299 -99 299h-8q-156 0 -408 -623q-45 -183 -66 -183h-8q-17 0 -17 25q66 307 66 532v82q0 228 -91 267h-8q-174 0 -474 -524l33 -590q0 -632 -158 -887q-60 -51 -107 -51q-159 0 -159 283q0 549 334 1254q0 174 -142 440 q-117 141 -216 141h-50q-224 -49 -224 -265v-50q0 -139 166 -200q103 0 124 149v33q-21 134 -99 134q-82 0 -91 -116l25 -59v-17l-17 -16h-8q-51 29 -51 100v9q0 106 134 148q136 0 158 -199q0 -140 -109 -199l-58 -16q-145 0 -216 207zM399 -43q0 -232 124 -232 q166 0 200 887l-25 507h-8q-291 -657 -291 -1162z" />
<glyph unicode="N" horiz-adv-x="1468" d="M0 1474v45q0 207 285 258q212 0 303 -240h19q188 313 413 313h19q262 0 385 -313l19 -128v-9q0 -258 -285 -974q-37 -174 -37 -367q0 -370 258 -432l36 -9q178 0 266 230q18 41 37 45l28 -18q0 -161 -239 -294l-92 -19q-271 0 -339 405l-10 118q0 348 248 910 q73 254 73 405v9q0 292 -302 385h-65q-206 0 -404 -330q45 -192 45 -377v-119q0 -499 -192 -1029q-78 -128 -156 -128q-147 53 -147 348q12 441 303 1149l91 156q-73 248 -247 248l-28 9q-188 0 -229 -202v-36q30 -156 156 -156q123 0 155 119v45q-28 130 -119 130l-101 -19 l-9 9v19q27 45 119 45q126 0 166 -192v-28q0 -143 -184 -175h-46q-193 43 -193 194zM220 141q16 -244 93 -276h18q93 0 202 488q74 316 74 633v101q0 133 -28 303h-9q-350 -768 -350 -1249z" />
<glyph unicode="O" horiz-adv-x="1538" d="M0 432v93q0 573 337 1031q277 299 543 299h47q178 0 271 -103q0 -28 -37 -28v-9q323 -151 356 -918q0 -689 -440 -1085q-194 -141 -375 -141h-74q-347 0 -553 431q-75 210 -75 430zM57 432q0 -623 458 -785l113 -19h74q391 0 638 543q120 307 120 645q0 479 -224 787 q-131 112 -262 112h-28q-265 0 -365 -319l-10 -66q55 -309 253 -309h65q129 0 244 160q38 65 38 113v55q-57 215 -187 215h-28l-85 -18l-19 28q15 47 122 47q180 0 252 -262v-47q0 -240 -309 -346h-93q-197 0 -291 271l-18 103q0 307 384 431h75q81 0 159 -38h10v10 q-117 55 -197 55h-75q-312 0 -599 -429q-215 -419 -215 -844v-93z" />
<glyph unicode="P" horiz-adv-x="1294" d="M0 1512v36q0 210 348 292l85 10h65q409 0 697 -367q85 -138 85 -282q0 -337 -348 -461l-198 -28l-216 28q-141 -694 -292 -1016q-61 -133 -94 -151h-10l-19 19l170 395q189 676 189 771q-130 42 -227 142v10l19 18h19q95 -76 197 -113q76 384 123 875h19l28 -18 q0 -204 -113 -876q128 -28 216 -28q336 0 452 273q28 88 28 160q0 386 -536 564q-68 28 -189 28h-65q-376 -45 -376 -253v-38q0 -99 150 -142h66q78 0 104 113v29q-32 123 -114 123l-75 -20l-10 10v28q0 26 95 37q160 -48 160 -187v-10q-31 -178 -170 -178h-46 q-217 47 -217 207z" />
<glyph unicode="Q" horiz-adv-x="1276" d="M0 456v100q0 511 256 990q218 302 486 302h47q385 0 458 -714l10 -147q0 -685 -396 -1189q-109 -86 -109 -111q125 -338 321 -338h9q145 0 165 174q-49 201 -156 201h-45q-104 0 -120 -146q29 -119 110 -119h46q67 0 101 109h9q28 0 28 -35q-37 -129 -129 -129h-45 q-143 0 -175 183q31 192 183 192h28q167 0 220 -265q0 -192 -238 -221q-221 0 -358 376q-134 -46 -193 -46h-54q0 -36 -18 -36h-19q-281 0 -395 549q-27 149 -27 320zM55 429q22 -660 312 -779h9v10q-138 75 -138 165v45q42 147 203 147q174 0 283 -266q227 146 395 650 q82 358 82 577q0 599 -284 788l-110 27h-65q-540 0 -687 -1126v-238zM293 -139v-28q0 -109 193 -154h27q86 0 166 45q-92 238 -248 238q-114 0 -138 -101z" />
<glyph unicode="R" horiz-adv-x="1515" d="M5 1397v10q0 328 571 443h99q500 0 759 -470q55 -151 55 -245v-82q0 -334 -363 -560q-140 -79 -424 -118v-8q112 -120 461 -896q122 -205 226 -226q60 0 127 64h17l19 -18v-9q-64 -92 -153 -92q-215 0 -525 787q-143 283 -245 398h-118q-16 -7 -107 -388 q-119 -346 -200 -417h-8l-19 19v17q99 141 208 516l63 262q-172 41 -172 117q33 73 109 73l99 -18q109 579 109 805v36l27 27h9l18 -17v-18q0 -292 -117 -860q34 -10 126 -99q405 0 652 281q126 172 126 342v82q0 313 -325 534q-204 127 -416 127h-54q-358 0 -552 -271 l-28 -101v-44q30 -172 163 -172h45q99 0 127 145v27q-29 126 -118 126h-9q-109 0 -109 -153h-17q-27 8 -27 54q30 153 145 153h8q148 0 181 -190v-17q-40 -200 -189 -200h-37q-182 0 -217 244zM330 493q67 -55 127 -55l18 63l-99 19q-46 -11 -46 -27zM511 430h65l-55 44z " />
<glyph unicode="S" horiz-adv-x="1082" d="M0 -19v49q51 328 311 328q176 0 260 -227l8 -92q-24 -251 -235 -251q-192 0 -234 251v8q58 210 201 210q61 0 101 -58v-9l-26 -26q-40 42 -93 42q-134 -59 -134 -167v-9q0 -166 202 -192h9q130 0 159 192v17q-30 260 -227 260q-212 0 -251 -277v-49q0 -286 352 -361h59 q372 0 494 377l9 101q0 248 -327 764q-168 285 -168 494v18q0 347 411 469l68 9h58q267 0 319 -344q-36 -286 -251 -286q-204 0 -236 260v17q40 201 185 201h16q138 0 169 -201q-19 -143 -134 -143q-93 0 -93 77l16 16h9l42 -42h34q67 0 75 92q-23 152 -109 152h-34 q-98 0 -125 -152v-17q21 -209 185 -209q172 0 200 226v18q-38 284 -277 284h-49q-226 0 -387 -242q-42 -101 -42 -185v-18q0 -257 352 -797q143 -284 143 -470q0 -370 -436 -511l-125 -9h-18q-297 0 -419 303z" />
<glyph unicode="T" horiz-adv-x="902" d="M0 1476v8q0 206 277 237l230 -15h7q428 22 428 126l24 16h7q16 0 16 -23q-285 -1224 -602 -1851q-81 -163 -269 -404h-16q-14 0 -14 24q262 362 403 712q190 461 426 1424q-197 -72 -395 -72h-24l-229 16q-222 -32 -222 -174v-39q28 -143 127 -143h16q84 0 127 134v24 q-14 87 -88 87q-95 0 -95 -95v-32l8 -7q0 -16 41 -16l7 -8v-24q0 -15 -24 -15q-71 0 -78 95v15q22 135 134 135q142 -16 142 -143v-7q-42 -190 -181 -190q-156 0 -183 205z" />
<glyph unicode="U" horiz-adv-x="1632" d="M0 1481v74q0 228 274 300h67q265 0 307 -357v-67q0 -226 -274 -831q-124 -296 -124 -523q0 -375 348 -424h50q266 0 507 374l-8 257q0 1027 300 1347l58 17h16q100 0 100 -176v-57q0 -581 -416 -1397q42 -465 233 -465q105 0 124 166l-15 84l7 8h26q18 0 32 -100 q-29 -208 -191 -208q-181 0 -257 416v33h-9q-224 -349 -515 -349h-33q-263 0 -374 283q-33 110 -33 198q0 296 324 998q74 215 74 349v67q0 236 -215 307h-76q-206 0 -257 -233v-41q23 -216 200 -216q157 55 157 157v76q0 93 -133 107q-23 0 -83 -74h-8l-17 17v24 q45 83 125 83q166 -33 166 -166v-58q0 -165 -224 -216q-155 0 -233 216zM1197 118q124 188 283 706q91 377 91 591v57q-11 126 -41 126h-17q-247 -71 -316 -1131v-349z" />
<glyph unicode="V" horiz-adv-x="1743" d="M0 1500v51q47 302 302 302h35q220 0 385 -260q51 -109 51 -253q0 -176 -176 -806q-68 -309 -68 -469q0 -445 286 -445h33q380 0 672 1041q68 307 68 537l-9 100h-9l-101 -7q-144 0 -159 92v8q14 118 117 118q118 0 177 -152q92 0 403 118l17 -16v-9q0 -51 -403 -143 q17 -46 17 -143q0 -565 -354 -1251q-215 -344 -436 -344h-59q-221 0 -293 328l-18 150q0 302 202 1009q42 159 42 310q0 302 -294 420q-32 16 -91 16h-35q-251 -34 -251 -251v-51q0 -151 193 -176h49q132 0 178 159v77q0 111 -194 134q-134 -17 -134 -127v-7l16 -51l-7 -9 h-26q-21 0 -34 76q0 146 201 167q227 -38 227 -192v-59q0 -147 -183 -210l-60 -8h-50q-227 47 -227 226zM1361 1366l117 -26q75 6 75 17q-42 102 -142 102q-34 -13 -50 -42v-51z" />
<glyph unicode="W" horiz-adv-x="2109" d="M0 469v9l26 26q44 -35 94 -35h50q85 332 204 332q61 0 85 -111q0 -185 -263 -280q-43 -253 -43 -375q0 -258 128 -331l51 -9q180 0 390 443q5 50 26 50h9l9 -7h7l-7 -170v-60q41 -332 212 -332h34q197 0 416 484q-187 20 -485 273q-356 353 -356 757q0 473 323 687 q79 35 144 35h35q300 0 509 -408q76 -212 76 -434v-59q0 -382 -170 -816l9 -9h136q225 0 433 221l26 -25v-9q-203 -238 -459 -238h-67l-103 9q-234 -519 -484 -519h-35q-161 0 -246 332v94h-9q-197 -349 -382 -349q-152 0 -212 264l-9 126q18 290 51 384q-125 0 -153 50z M221 478h8q179 70 179 221q-17 51 -34 51q-72 0 -153 -272zM637 1133q0 -511 553 -884q156 -81 263 -103q171 433 171 782v85q0 577 -400 757q-63 34 -135 34h-35q-307 0 -408 -553z" />
<glyph unicode="X" horiz-adv-x="1367" d="M0 1486v36q0 221 249 313l74 10h55q413 0 591 -747l36 -230h10q276 588 276 811l9 9h18l20 -18v-9q0 -258 -315 -894q183 -1344 563 -1344h55l28 -28l-28 -29h-37q-449 0 -617 1308h-18q-315 -597 -315 -976v-65l-18 -18h-18l-19 18v56q0 438 370 1086 q-137 1015 -591 1015h-55q-178 0 -258 -194l-10 -74v-46q0 -122 185 -156q156 26 156 138v56q-16 129 -110 129h-28q-105 0 -119 -129l8 -28l-28 -19h-8q-22 0 -28 65q0 134 185 166h9q175 -31 175 -176v-55q0 -165 -212 -203q-240 46 -240 222z" />
<glyph unicode="Y" horiz-adv-x="1565" d="M0 1512v65q71 278 278 278h56q195 0 297 -287l19 -177q0 -170 -149 -816l-19 -205q0 -378 297 -492l47 -9q201 0 437 445q-38 255 -48 502q0 835 316 835q112 -33 112 -205q0 -349 -306 -1104l-18 -28l27 -269l148 130h10l18 -19v-17l-167 -168v-46l10 -120 q0 -587 -353 -790h-56q-138 0 -167 270q0 307 511 715l-29 212h-8q-219 -399 -437 -399q-195 0 -344 278q-36 56 -54 279q0 171 157 864l9 166q0 320 -232 399h-92q-214 -70 -214 -214v-64q27 -177 176 -177q158 42 158 149v56q-21 102 -102 102h-10q-47 0 -111 -74h-9 l-19 18v19q46 93 158 93q117 0 149 -168v-37q-43 -204 -195 -204h-47q-157 0 -204 214zM845 -723q0 -179 121 -206q206 0 324 501l19 241l-9 112h-10q-445 -366 -445 -648zM1271 825l29 -408q83 101 260 779l27 260q0 139 -83 139q-189 0 -223 -640z" />
<glyph unicode="Z" horiz-adv-x="1437" d="M-5 1286v55q0 358 408 498l81 9h54q359 0 534 -444q28 -119 28 -216q0 -341 -308 -997q68 36 126 36q170 0 254 -190l227 172h18l18 -18v-9l-235 -190l9 -136v-63q0 -396 -281 -724q-85 -64 -154 -64q-108 0 -108 173v28q0 334 470 795q-69 172 -235 172 q-154 0 -327 -471l-9 -9h-17q-19 0 -19 28q77 208 399 923q118 312 118 561q0 430 -417 579l-81 10h-64q-261 0 -408 -299q-27 -85 -27 -154v-55q29 -243 217 -243h28q198 0 226 181v35q-31 172 -172 172h-26q-164 -30 -164 -136v-26q12 -81 81 -81h27q15 0 46 62h18l18 -17 v-9q-18 -91 -90 -91h-28q-101 0 -126 145v17q0 145 218 190h8q244 -32 244 -226v-18q0 -182 -199 -244l-81 -10h-9q-255 0 -290 299zM719 -794v-45q14 -100 45 -100h10q229 0 371 605l10 127v146q-217 -196 -336 -408q-100 -194 -100 -325z" />
<glyph unicode="[" horiz-adv-x="262" d="M0 936q0 214 43 769l-9 25l248 120l17 -17v-9q0 -12 -205 -128q-43 -541 -43 -760l26 -864q196 -51 196 -144l-17 -18h-8q-63 94 -222 128l-9 9v17z" />
<glyph unicode="\" horiz-adv-x="439" d="M-75 1838l8 7h14q23 0 100 -366q222 -847 488 -1557v-7l-14 -15h-8q-23 0 -244 646q-200 645 -344 1292z" />
<glyph unicode="]" horiz-adv-x="309" d="M0 1824v9l17 17l197 -94q43 -3 43 -26l43 -865l-17 -617v-206q-11 -19 -154 -51l-78 -86h-8l-26 26q77 137 214 137v171l18 634l-43 831q-194 88 -206 120z" />
<glyph unicode="^" horiz-adv-x="434" d="M15 1557v19l237 275h10l114 -209l47 -57v-9l-19 -19h-19q-102 98 -133 209l-209 -228h-9z" />
<glyph unicode="_" d="M0 24v9q0 16 25 16l914 16h164l24 -24v-8l-16 -17h-172l-923 -16z" />
<glyph unicode="`" horiz-adv-x="310" d="M5 1721v18q0 19 28 19q111 0 272 -150v-9l-19 -19h-18q-186 131 -254 131z" />
<glyph unicode="a" horiz-adv-x="652" d="M0 250v89q0 243 210 483q81 73 153 73h48q49 -5 49 -24v-16l-8 -8v-8q72 -18 72 -121v-57q0 -203 -97 -411q61 -161 194 -161l8 -8v-16l-16 -17h-24q-97 0 -194 137q-86 -185 -242 -185q-134 0 -153 250zM48 250q0 -202 113 -202q127 0 218 202q-48 132 -48 290 q0 224 80 307h-56q-159 0 -290 -387l-17 -121v-89zM379 532l24 -218h8q65 207 65 347v57q0 80 -49 80q-48 -98 -48 -266z" />
<glyph unicode="b" horiz-adv-x="642" d="M0 469q30 0 59 352q19 278 184 628q100 151 159 151h17q50 -20 50 -117v-25q0 -383 -385 -955q26 -413 226 -453h34q161 0 201 252q-20 144 -42 159q-81 -42 -176 -42h-9q-117 11 -117 100v9q20 142 134 142h25q83 0 160 -134h16q71 57 143 159h8l17 -16q0 -70 -151 -193 q25 -67 42 -193q-50 -293 -268 -293h-17q-201 0 -276 444q-34 0 -34 25zM92 612h9q318 514 318 829v67l-8 42h-17q-171 -174 -210 -377q-92 -292 -92 -553v-8zM251 528q0 -59 59 -59h25q54 0 151 34q-65 117 -134 117h-42q-59 -37 -59 -84v-8z" />
<glyph unicode="c" horiz-adv-x="644" d="M0 349v60q53 486 264 486h17q76 0 145 -77v-17l-17 -17h-9q-76 60 -110 60h-34q-170 -35 -205 -435v-60q0 -259 205 -298h51q149 0 289 239l9 8h8l26 -25q-152 -273 -324 -273h-68q-247 58 -247 349z" />
<glyph unicode="d" horiz-adv-x="827" d="M0 341v48q48 368 255 368h10q103 0 188 -132v-19l-18 -19h-10q-91 114 -170 114h-9q-189 -64 -189 -312v-57q0 -215 179 -265h57q91 0 217 180q-47 311 -47 718v48q25 756 170 756h28q142 0 142 -416q0 -657 -227 -1125q38 -196 114 -283l37 -29v-9l-28 -28 q-78 0 -161 264l-9 28q-135 -161 -246 -161h-37q-246 51 -246 331zM520 937q0 -382 37 -596h10q179 414 179 1031q-15 340 -75 340h-29q-122 -145 -122 -699v-76z" />
<glyph unicode="e" horiz-adv-x="559" d="M0 360v56q39 479 232 479h8q103 0 127 -144q-29 -168 -159 -168h-32q-65 0 -104 24q-24 -92 -24 -191v-56q21 -304 176 -304l24 -8q148 0 287 248h8l16 -16v-8q-115 -272 -319 -272q-240 47 -240 360zM88 647l72 -16h56q87 0 103 128q-16 88 -79 88h-16q-80 0 -136 -184 v-16z" />
<glyph unicode="f" horiz-adv-x="569" d="M0 693v9q0 14 123 70l52 62v219q0 658 149 658h18q114 0 114 -202q0 -351 -228 -693v-105l26 -9q116 0 237 114h8l18 -18v-17q-114 -123 -210 -123q245 -325 245 -763q-26 -325 -184 -325h-35q-148 0 -175 465v228l8 395l9 9l-17 17v18l17 26v27q-101 -79 -149 -79h-8z M210 96q0 -394 114 -473h35q132 24 132 220l8 61q0 374 -210 701l-70 53l-9 -395v-167zM228 913h9q166 321 166 596q-12 149 -53 149h-35q-87 0 -87 -596v-149z" />
<glyph unicode="g" horiz-adv-x="608" d="M10 303v45q0 289 246 428l45 9h28q85 0 145 -73v-9l-18 -18h-18q-66 45 -100 45h-27q-188 0 -246 -382v-54q0 -205 173 -237h27q88 21 118 64l-9 72q33 301 146 301h27q55 -32 55 -82v-18q0 -151 -164 -301l9 -63h9l128 154h9l18 -18v-18l-137 -200q119 -406 119 -528 q-44 -355 -255 -355q-173 35 -173 292q0 247 246 609l-19 91q-76 -55 -145 -55q-157 0 -228 201zM219 -661q0 -199 128 -219q191 51 191 310q0 102 -100 455h-9q-210 -283 -210 -546zM429 166q118 110 118 209v46l-18 18h-18q-82 -74 -82 -273z" />
<glyph unicode="h" horiz-adv-x="719" d="M0 777q198 242 198 275v147q0 385 155 447h25q52 -31 52 -103v-52q0 -210 -180 -473q-18 -394 -44 -559v-9h9q78 207 163 207h17q81 0 95 -121v-26l-17 -292q8 -77 34 -77h35q108 63 146 197h17l26 -17q-80 -232 -215 -232q-83 0 -95 137l18 293v26q0 46 -35 60h-35 q-79 -33 -214 -456q-23 -129 -43 -129h-17l-18 17q112 451 112 895l-154 -181h-18q-17 0 -17 26zM250 1113h8q120 226 120 378v43l-9 60h-16q-103 -89 -103 -395v-86z" />
<glyph unicode="i" horiz-adv-x="344" d="M0 130v55q0 184 194 639h28l19 -18q-174 -424 -185 -621v-65q0 -64 55 -64l83 18l10 -9v-28q0 -18 -93 -37q-98 0 -111 130zM268 1093v18l19 19h18q28 -9 28 -56l-9 -9h-28z" />
<glyph unicode="j" horiz-adv-x="607" d="M10 -570q0 302 335 697l44 600q-122 -115 -167 -115h-9l-18 18v9q103 60 230 211h8q18 0 18 -26q-44 -440 -44 -627q158 150 185 150l9 -8v-27q-203 -185 -203 -238q-61 -856 -291 -856q-97 25 -97 177v35zM63 -543v-62q0 -124 53 -124q150 101 150 247q35 94 70 503v9 h-8q-265 -357 -265 -573zM416 1133l26 17h9q27 -9 27 -53l-9 -9h-27q-20 0 -26 45z" />
<glyph unicode="k" horiz-adv-x="607" d="M0 923v8q150 129 150 241q0 400 108 499l25 17h33q42 0 50 -125q0 -198 -175 -490l-58 -574h17l8 -8l8 8q113 154 208 424l8 8h17q17 0 17 -25q-45 -183 -225 -457l175 -224q66 -67 125 -67l58 33h16l17 -16v-9q0 -33 -108 -58q-109 0 -308 308h-8q-42 0 -42 -83 q-49 -333 -74 -333h-9q-16 0 -16 25q41 242 41 366q-34 11 -50 41q0 48 83 100l42 466l-100 -92h-16zM58 441h17v16zM200 1197h8q108 212 108 366v17q0 58 -17 58q-99 -72 -99 -432v-9z" />
<glyph unicode="l" horiz-adv-x="455" d="M0 286v8l67 67v59l-8 25l8 42v17q41 1092 252 1092h17q112 0 126 -210v-59q0 -511 -286 -932l-58 -67v-34q0 -244 100 -244q77 0 168 236h26q16 0 16 -26q-91 -260 -226 -260q-135 48 -135 269v17h-8l-25 -17h-17zM109 454l9 -42q163 138 260 613q34 155 34 302v51 q0 168 -84 168h-17q-153 -57 -193 -1042z" />
<glyph unicode="m" horiz-adv-x="938" d="M0 48v7q158 540 158 658v127l-7 39l23 16h8q24 -5 24 -63v-95l-8 -119q86 142 151 142q77 0 95 -134q64 63 103 63h24q63 -33 63 -142v-16l-32 -349q25 -134 72 -134h39q95 0 167 166q7 71 23 71h16q16 0 16 -24q-63 -261 -230 -261h-8q-142 24 -142 190l31 341v16 q0 95 -31 95q-49 0 -103 -88v-55q0 -164 -111 -214l-16 24v16q0 98 79 237v16q0 103 -47 135q-122 0 -317 -673l-8 -8h-16z" />
<glyph unicode="n" horiz-adv-x="637" d="M0 77v38q0 137 146 500v93q0 88 -23 146h-15l-77 -77h-8l-15 15v16q59 92 107 92h16q61 -26 61 -200h8q74 154 169 154q117 0 139 -208v-15l-47 -469q0 -91 70 -116q15 0 61 69h8l23 -23q-35 -92 -100 -92q-82 0 -108 169l46 462q0 177 -100 177q-76 0 -169 -223 q-50 -570 -161 -570q-31 33 -31 62zM46 85h8q84 281 84 369v8h-7q-85 -248 -85 -347v-30z" />
<glyph unicode="o" horiz-adv-x="587" d="M0 304v112q0 314 224 463l64 16l23 -24l-103 -56q-160 -152 -160 -399v-72q0 -268 208 -296q213 0 271 423v56q0 244 -152 288h-16q-97 0 -127 -168v-56q28 -112 111 -112q80 35 80 128v40q-12 72 -64 72l-32 -8l-24 24q0 18 56 32q112 -22 112 -128v-16 q0 -165 -136 -191q-114 0 -151 167v32q31 232 183 232q178 0 208 -336v-16q-24 -410 -248 -495l-79 -16q-194 0 -248 304z" />
<glyph unicode="p" horiz-adv-x="643" d="M-15 -729q63 265 133 789q-78 56 -78 125v24q27 148 125 148l47 313l-172 -156h-8l-16 15v16q124 136 212 196q7 109 31 109h8l23 -16l-15 -70h7q62 31 102 31h39q180 -33 180 -266l8 -46q-65 -470 -344 -470l-102 24v-8q-115 -774 -157 -774h-7zM87 162q32 -55 47 -55 l23 196h-8q-46 0 -62 -86v-55zM173 84q54 -24 102 -24q222 0 289 407v23q0 219 -133 258h-47q-52 0 -117 -47l-55 -359q94 -45 94 -164q-18 -71 -39 -71h-8q-16 0 -16 24l16 78q0 41 -55 86z" />
<glyph unicode="q" horiz-adv-x="674" d="M10 387v37q0 194 185 385q86 74 148 74h22q108 0 155 -163v-7l-14 -15h-8q-11 0 -66 111q-32 30 -60 30h-37q-109 0 -244 -252q-37 -85 -37 -163v-37q24 -192 148 -192h22q197 0 245 185l51 59h23q29 -12 29 -52q0 -53 -111 -147l-29 -89q19 0 81 -82l200 74l7 -7v-22 q-15 -31 -185 -82q89 -143 89 -376v-30q-29 -311 -170 -311q-133 0 -170 282l-8 29q0 141 96 517q18 0 23 52h-8q-91 -44 -163 -44h-22q-160 0 -192 236zM321 -366q0 -230 140 -274q118 63 118 266v30q0 215 -81 362h-74l-37 7q-66 -278 -66 -391zM402 69l7 -7h52l-37 44 h-15zM513 358h7v15h-7v-15z" />
<glyph unicode="r" horiz-adv-x="462" d="M0 211v99q0 156 63 341q-63 117 -63 144l9 9h27q54 -61 54 -89q108 143 180 143h18q75 0 117 -63v-18l-18 -18h-18l-54 45h-36q-77 0 -162 -162q54 -161 54 -314q-24 -288 -81 -288h-36q-49 17 -54 171zM54 211q0 -117 27 -117q36 155 36 243l-27 207h-9l-27 -234v-99z " />
<glyph unicode="s" horiz-adv-x="669" d="M0 228v36l18 18h18q19 0 28 -109q80 -118 255 -118q114 0 137 154v19q0 113 -265 291q-54 93 -54 173q0 157 227 209h64q146 -20 146 -137v-9q0 -91 -118 -109q-55 19 -55 37l27 27l37 -9q54 0 54 63q-11 82 -82 82h-73q-173 -33 -173 -163v-10q0 -119 246 -282 q73 -83 73 -154v-9q0 -228 -218 -228q-292 46 -292 228z" />
<glyph unicode="t" horiz-adv-x="479" d="M0 954v7l15 15h159q96 336 182 462h15q15 0 15 -23q-91 -177 -167 -439l8 -7h159l15 -15v-8l-15 -15h-182q-91 -359 -91 -522v-53q0 -257 190 -311h30q45 0 113 84q23 0 23 -31q-56 -98 -151 -98q-250 48 -250 356v53q0 155 91 529h-83l-46 -7z" />
<glyph unicode="u" horiz-adv-x="641" d="M0 344v79q0 266 96 446h9l26 -26q-78 -203 -78 -420v-79q0 -240 148 -280q97 0 237 201l-18 245q0 330 105 385h35q53 -31 53 -105v-61q0 -271 -123 -473q43 -253 96 -253l35 8l9 -8v-26q0 -18 -52 -27q-85 0 -123 236h-17q-121 -175 -245 -175q-193 59 -193 333z M473 475l8 -114h9q70 165 70 368v70l-9 44h-8q-60 0 -70 -368z" />
<glyph unicode="v" horiz-adv-x="569" d="M0 881l9 8h17q30 0 43 -207q87 -321 182 -518q15 0 51 216q116 351 216 518h18q17 0 17 -26q-242 -518 -242 -768v-9l9 -86l-9 -9h-17q-30 0 -182 363q-112 313 -112 518z" />
<glyph unicode="w" horiz-adv-x="894" d="M0 330v70q0 272 165 495h18l17 -17v-9q-148 -228 -148 -469v-70q13 -278 122 -278q141 0 208 409l9 8h18l17 -17v-130q26 -270 156 -270h27q80 0 165 165q52 151 52 296v43q0 126 -26 287l8 9h27q43 -41 43 -296v-17q0 -407 -226 -530l-52 -9h-18q-135 0 -191 217h-17 q-66 -217 -209 -217q-165 41 -165 330z" />
<glyph unicode="x" horiz-adv-x="519" d="M0 17v17q131 215 194 412l-160 429v8l17 17h8q40 -30 160 -395h8q129 395 152 395h8l17 -17l-151 -471q104 -336 244 -336l8 -9v-17l-17 -25q-162 0 -261 328h-17q-126 -318 -185 -353h-8z" />
<glyph unicode="y" horiz-adv-x="673" d="M5 648v27q0 174 135 217h37q108 -57 108 -244l9 -45l-18 -343q0 -114 90 -180h27q165 0 226 622l9 9h9l27 -18l-9 -288v-713q0 -391 -226 -532l-63 -10h-9q-209 0 -253 298q51 253 190 253q117 0 162 -217q-32 -180 -135 -180h-9q-80 0 -117 135l27 18h9q56 -99 72 -99h9 q90 18 90 126q-34 163 -108 163q-136 -49 -136 -217q39 -225 199 -225h9q197 0 235 487v568h-9q-66 -234 -199 -234q-139 0 -171 243l18 334q0 235 -100 235h-9q-39 0 -72 -145v-36q0 -32 36 -72v-9l-18 -18h-18q-54 37 -54 90z" />
<glyph unicode="z" horiz-adv-x="622" d="M15 281q113 504 264 527h9q105 0 105 -167v-18q0 -131 -44 -360h9l35 9q83 0 123 -281q0 -62 18 -62q14 36 61 36l9 -9v-27l-79 -70q0 -548 -202 -756l-53 -18q-102 0 -123 176q0 345 316 616h9q0 255 -88 342q-38 -30 -96 -158h-9l-27 17q88 356 88 545v36 q-13 96 -44 96h-26q-90 -56 -193 -413q-9 -88 -36 -88h-8q-18 0 -18 27zM200 -730q11 -118 52 -132h27q65 0 149 299q44 212 44 378q-272 -245 -272 -545z" />
<glyph unicode="{" horiz-adv-x="1197" d="M0 694v8q0 77 118 158q-46 0 -94 181v31q0 163 173 237h16q52 0 142 -158q67 -89 480 -134q136 0 308 -205q55 -124 55 -181q-49 -245 -221 -245l-8 -7q-189 37 -189 181v16q24 149 150 149q112 0 134 -149q-20 -103 -95 -103h-15l-24 24q0 23 55 23q32 31 32 71 q-19 68 -63 87h-32q-94 -19 -94 -94v-32q0 -94 134 -126q154 0 189 213q0 200 -292 331q-421 39 -489 118q-94 66 -141 174h-40q-118 -84 -118 -174v-47q0 -84 95 -166l118 16h71q175 0 212 -71v-39q-32 -40 -94 -40h-79q-127 0 -236 79q-111 -53 -111 -110v-24 q22 -126 245 -126l8 8q67 102 181 102q47 -16 47 -31v-16q0 -103 -189 -103h-8v-15q0 -99 118 -111h48q187 0 212 174q0 55 24 55h8l16 -16v-47q-43 -213 -260 -213h-48q-165 29 -165 150v16q-204 0 -276 126zM221 828q94 -39 173 -39h87l39 7v8q-30 40 -150 40h-134z M355 568h15q111 18 111 47v8q-75 0 -126 -55z" />
<glyph unicode="|" horiz-adv-x="142" d="M0 1848l7 7h15q41 0 51 -582l-8 -655q0 -300 51 -705l-7 -8h-15q-50 0 -72 720l7 648q0 210 -29 575z" />
<glyph unicode="}" horiz-adv-x="1198" d="M10 653v8q0 235 313 368q397 47 493 117q61 60 126 172l39 8h15q82 0 165 -164l16 -79q0 -92 -94 -211v-8q117 -53 117 -149q0 -155 -282 -180h-8v-23q0 -98 -133 -141h-62q-200 0 -267 172l-7 71v7l23 24h8q13 0 31 -125q75 -102 204 -102h39q117 13 117 94v31h-15 q-180 0 -180 118l54 31q102 0 188 -110q243 0 243 141q0 56 -110 118q-123 -79 -227 -79h-70q-118 8 -118 47v8q0 94 220 94h78l102 -16q102 80 102 188q0 126 -134 196h-31q-50 -126 -172 -196q-75 -52 -478 -101q-258 -130 -258 -321v-24q44 -188 172 -188q141 28 141 118 v47q0 64 -94 86h-8q-70 0 -78 -94v-31q22 -40 71 -40l7 -7v-16l-15 -16h-24q-72 0 -86 102v16q0 117 141 133q106 0 133 -141v-31q0 -130 -180 -173q-148 0 -219 188zM675 817l55 -8h86q60 0 157 40v15h-125q-101 0 -173 -31v-16zM715 637q37 -47 125 -47q-42 55 -125 55v-8 z" />
<glyph unicode="~" horiz-adv-x="810" d="M0 833q39 221 153 221h34q67 0 400 -204l68 -9q58 0 102 187h17l26 -17q-36 -221 -162 -221q-74 0 -400 204l-42 9h-34q-83 0 -119 -187l-9 -9h-17q-17 0 -17 26z" />
<glyph unicode="&#xa1;" horiz-adv-x="682" />
<glyph unicode="&#xa2;" />
<glyph unicode="&#xa3;" />
<glyph unicode="&#xa4;" />
<glyph unicode="&#xa5;" />
<glyph unicode="&#xa6;" horiz-adv-x="532" />
<glyph unicode="&#xa7;" />
<glyph unicode="&#xa8;" horiz-adv-x="682" />
<glyph unicode="&#xa9;" horiz-adv-x="1509" />
<glyph unicode="&#xaa;" horiz-adv-x="758" />
<glyph unicode="&#xab;" />
<glyph unicode="&#xac;" horiz-adv-x="1196" />
<glyph unicode="&#xad;" horiz-adv-x="512" d="M5 649v8l18 18l446 17l9 -8v-18l-26 -26h-9l-420 -18z" />
<glyph unicode="&#xae;" horiz-adv-x="1509" />
<glyph unicode="&#xaf;" horiz-adv-x="1131" />
<glyph unicode="&#xb0;" horiz-adv-x="819" />
<glyph unicode="&#xb1;" horiz-adv-x="1124" />
<glyph unicode="&#xb2;" horiz-adv-x="682" />
<glyph unicode="&#xb3;" horiz-adv-x="682" />
<glyph unicode="&#xb4;" horiz-adv-x="682" />
<glyph unicode="&#xb5;" horiz-adv-x="1180" />
<glyph unicode="&#xb6;" horiz-adv-x="1100" />
<glyph unicode="&#xb7;" horiz-adv-x="569" />
<glyph unicode="&#xb8;" horiz-adv-x="682" />
<glyph unicode="&#xb9;" horiz-adv-x="682" />
<glyph unicode="&#xba;" horiz-adv-x="748" />
<glyph unicode="&#xbb;" />
<glyph unicode="&#xbc;" horiz-adv-x="1708" />
<glyph unicode="&#xbd;" horiz-adv-x="1708" />
<glyph unicode="&#xbe;" horiz-adv-x="1708" />
<glyph unicode="&#xbf;" horiz-adv-x="1251" />
<glyph unicode="&#xc0;" horiz-adv-x="1366" />
<glyph unicode="&#xc1;" horiz-adv-x="1366" />
<glyph unicode="&#xc2;" horiz-adv-x="1366" />
<glyph unicode="&#xc3;" horiz-adv-x="1366" />
<glyph unicode="&#xc4;" horiz-adv-x="1366" />
<glyph unicode="&#xc5;" horiz-adv-x="1366" />
<glyph unicode="&#xc6;" horiz-adv-x="2048" />
<glyph unicode="&#xc7;" horiz-adv-x="1479" />
<glyph unicode="&#xc8;" horiz-adv-x="1366" />
<glyph unicode="&#xc9;" horiz-adv-x="1366" />
<glyph unicode="&#xca;" horiz-adv-x="1366" />
<glyph unicode="&#xcb;" horiz-adv-x="1366" />
<glyph unicode="&#xcc;" horiz-adv-x="569" />
<glyph unicode="&#xcd;" horiz-adv-x="569" />
<glyph unicode="&#xce;" horiz-adv-x="569" />
<glyph unicode="&#xcf;" horiz-adv-x="569" />
<glyph unicode="&#xd0;" horiz-adv-x="1479" />
<glyph unicode="&#xd1;" horiz-adv-x="1479" />
<glyph unicode="&#xd2;" horiz-adv-x="1593" />
<glyph unicode="&#xd3;" horiz-adv-x="1593" />
<glyph unicode="&#xd4;" horiz-adv-x="1593" />
<glyph unicode="&#xd5;" horiz-adv-x="1593" />
<glyph unicode="&#xd6;" horiz-adv-x="1593" />
<glyph unicode="&#xd7;" horiz-adv-x="1196" />
<glyph unicode="&#xd8;" horiz-adv-x="1593" />
<glyph unicode="&#xd9;" horiz-adv-x="1479" />
<glyph unicode="&#xda;" horiz-adv-x="1479" />
<glyph unicode="&#xdb;" horiz-adv-x="1479" />
<glyph unicode="&#xdc;" horiz-adv-x="1479" />
<glyph unicode="&#xdd;" horiz-adv-x="1366" />
<glyph unicode="&#xde;" horiz-adv-x="1366" />
<glyph unicode="&#xdf;" horiz-adv-x="1251" />
<glyph unicode="&#xe0;" />
<glyph unicode="&#xe1;" />
<glyph unicode="&#xe2;" />
<glyph unicode="&#xe3;" />
<glyph unicode="&#xe4;" />
<glyph unicode="&#xe5;" />
<glyph unicode="&#xe6;" horiz-adv-x="1821" />
<glyph unicode="&#xe7;" horiz-adv-x="1024" />
<glyph unicode="&#xe8;" />
<glyph unicode="&#xe9;" />
<glyph unicode="&#xea;" />
<glyph unicode="&#xeb;" />
<glyph unicode="&#xec;" horiz-adv-x="569" />
<glyph unicode="&#xed;" horiz-adv-x="569" />
<glyph unicode="&#xee;" horiz-adv-x="569" />
<glyph unicode="&#xef;" horiz-adv-x="569" />
<glyph unicode="&#xf0;" />
<glyph unicode="&#xf1;" />
<glyph unicode="&#xf2;" />
<glyph unicode="&#xf3;" />
<glyph unicode="&#xf4;" />
<glyph unicode="&#xf5;" />
<glyph unicode="&#xf6;" />
<glyph unicode="&#xf7;" horiz-adv-x="1124" />
<glyph unicode="&#xf8;" horiz-adv-x="1251" />
<glyph unicode="&#xf9;" />
<glyph unicode="&#xfa;" />
<glyph unicode="&#xfb;" />
<glyph unicode="&#xfc;" />
<glyph unicode="&#xfd;" horiz-adv-x="1024" />
<glyph unicode="&#xfe;" />
<glyph unicode="&#xff;" horiz-adv-x="1024" />
<glyph unicode="&#x152;" horiz-adv-x="2048" />
<glyph unicode="&#x153;" horiz-adv-x="1933" />
<glyph unicode="&#x178;" horiz-adv-x="1366" />
<glyph unicode="&#x2c6;" horiz-adv-x="682" />
<glyph unicode="&#x2dc;" horiz-adv-x="682" />
<glyph unicode="&#x2000;" horiz-adv-x="929" />
<glyph unicode="&#x2001;" horiz-adv-x="1858" />
<glyph unicode="&#x2002;" horiz-adv-x="929" />
<glyph unicode="&#x2003;" horiz-adv-x="1858" />
<glyph unicode="&#x2004;" horiz-adv-x="619" />
<glyph unicode="&#x2005;" horiz-adv-x="464" />
<glyph unicode="&#x2006;" horiz-adv-x="309" />
<glyph unicode="&#x2007;" horiz-adv-x="309" />
<glyph unicode="&#x2008;" horiz-adv-x="232" />
<glyph unicode="&#x2009;" horiz-adv-x="371" />
<glyph unicode="&#x200a;" horiz-adv-x="103" />
<glyph unicode="&#x2010;" horiz-adv-x="512" d="M5 649v8l18 18l446 17l9 -8v-18l-26 -26h-9l-420 -18z" />
<glyph unicode="&#x2011;" horiz-adv-x="512" d="M5 649v8l18 18l446 17l9 -8v-18l-26 -26h-9l-420 -18z" />
<glyph unicode="&#x2012;" horiz-adv-x="512" d="M5 649v8l18 18l446 17l9 -8v-18l-26 -26h-9l-420 -18z" />
<glyph unicode="&#x2013;" />
<glyph unicode="&#x2014;" horiz-adv-x="2048" />
<glyph unicode="&#x2018;" horiz-adv-x="455" />
<glyph unicode="&#x2019;" horiz-adv-x="455" />
<glyph unicode="&#x201a;" horiz-adv-x="455" />
<glyph unicode="&#x201c;" horiz-adv-x="682" />
<glyph unicode="&#x201d;" horiz-adv-x="682" />
<glyph unicode="&#x201e;" horiz-adv-x="682" />
<glyph unicode="&#x2022;" horiz-adv-x="717" />
<glyph unicode="&#x2026;" horiz-adv-x="2048" />
<glyph unicode="&#x202f;" horiz-adv-x="371" />
<glyph unicode="&#x2039;" horiz-adv-x="682" />
<glyph unicode="&#x203a;" horiz-adv-x="682" />
<glyph unicode="&#x205f;" horiz-adv-x="464" />
<glyph unicode="&#x20ac;" />
<glyph unicode="&#x2122;" horiz-adv-x="2048" />
<glyph unicode="&#x25fc;" horiz-adv-x="900" d="M0 0v900h900v-900h-900z" />
</font>
</defs>
</svg>
